<svg xmlns="http://www.w3.org/2000/svg" xmlns:xlink="http://www.w3.org/1999/xlink" viewBox="0 0 123.47 36"><defs><style>.cls-1{fill:#60c195}.cls-2{fill:url(#linear-gradient)}.cls-3{fill:url(#linear-gradient-2)}.cls-4{fill:url(#linear-gradient-3)}.cls-5{fill:url(#linear-gradient-4)}.cls-6{fill:url(#linear-gradient-5)}.cls-7{fill:#302e2e}</style><linearGradient id="linear-gradient" x1="24.06" y1="29.72" x2="24.06" y2="15.16" gradientUnits="userSpaceOnUse"><stop offset=".24" stop-color="#ff6161"/><stop offset=".46" stop-color="#ff8b51"/><stop offset=".69" stop-color="#ffaf42"/><stop offset=".88" stop-color="#ffc639"/><stop offset="1" stop-color="#ffce36"/></linearGradient><linearGradient id="linear-gradient-2" x1="1.93" y1="29.72" x2="1.93" y2="15.16" xlink:href="#linear-gradient"/><linearGradient id="linear-gradient-3" x1="7.46" y1="34.19" x2="7.46" y2="13.6" xlink:href="#linear-gradient"/><linearGradient id="linear-gradient-4" x1="18.53" y1="34.19" x2="18.53" y2="13.6" xlink:href="#linear-gradient"/><linearGradient id="linear-gradient-5" x1="12.99" y1="35.69" x2="12.99" y2="16.21" xlink:href="#linear-gradient"/></defs><g id="Layer_2" data-name="Layer 2"><g id="Layer_1-2" data-name="Layer 1"><path class="cls-1" d="M11.07 5.11v9.54h1.29a2.56 2.56 0 0 0 2.56-2.56V2.55h-1.29a2.56 2.56 0 0 0-2.56 2.56zM19.16 0a2.56 2.56 0 0 0-2.56 2.56v9.54h1.29a2.57 2.57 0 0 0 2.57-2.56V0z"/><path class="cls-2" d="M23.42 14.85h-1.29V30h1.29A2.56 2.56 0 0 0 26 27.39v-10a2.56 2.56 0 0 0-2.58-2.54z"/><path class="cls-3" d="M0 17.41v10A2.56 2.56 0 0 0 2.56 30h1.29V14.85H2.56A2.56 2.56 0 0 0 0 17.41z"/><path class="cls-4" d="M8.08 13.17H6.84a1.31 1.31 0 0 0-1.31 1.31V32a2.57 2.57 0 0 0 2.56 2.57h1.3v-20a1.31 1.31 0 0 0-1.31-1.4z"/><path class="cls-5" d="M19.15 13.17h-1.24a1.31 1.31 0 0 0-1.31 1.31v20h1.29A2.57 2.57 0 0 0 20.46 32V14.48a1.31 1.31 0 0 0-1.31-1.31z"/><path class="cls-6" d="M13.68 15.8H12.3a1.24 1.24 0 0 0-1.23 1.2v17.13A1.87 1.87 0 0 0 12.94 36a2 2 0 0 0 2-2V17a1.24 1.24 0 0 0-1.26-1.2z"/><path class="cls-7" d="M39.54 16.43h-5.3v12h1.67v-3.9h3.63a3.91 3.91 0 0 0 3-1.27 4.18 4.18 0 0 0 1-2.78 3.91 3.91 0 0 0-4-4.05zM35.91 18h3.63a2.33 2.33 0 0 1 2.38 2.46 2.56 2.56 0 0 1-.6 1.7 2.25 2.25 0 0 1-1.78.76h-3.63zm12.55 1.58a4.34 4.34 0 0 0-4.4 4.47 4.28 4.28 0 0 0 4.4 4.45 4.68 4.68 0 0 0 3.71-1.67l.24-.32-1.19-1-.25.33a3.29 3.29 0 0 1-2.51 1 2.71 2.71 0 0 1-2.74-2.11h7v-.36a4.5 4.5 0 0 0-1-3.55 4.35 4.35 0 0 0-3.26-1.24zm-2.73 3.75a2.7 2.7 0 0 1 2.73-2.22 2.45 2.45 0 0 1 2.76 2.22zm15.35-2.66a4.16 4.16 0 0 0-2.82-1.05 4.31 4.31 0 0 0-4.4 4.43 4.34 4.34 0 0 0 4.4 4.47 4.08 4.08 0 0 0 2.82-1.08v.95h1.58v-8.68h-1.58zm-2.82 6.27a2.76 2.76 0 0 1-2.82-2.89 2.85 2.85 0 1 1 5.7 0 3 3 0 0 1-.72 2 2.76 2.76 0 0 1-2.16.89zM70.53 22l.28.28 1.09-1.05-.29-.29a4.46 4.46 0 0 0-3.15-1.3A4.24 4.24 0 0 0 64 24.05a4.29 4.29 0 0 0 4.45 4.42 4.42 4.42 0 0 0 3.15-1.3l.29-.28-1.1-1.1-.29.29a2.86 2.86 0 0 1-4.93-2c.01-3.08 3.5-3.55 4.96-2.08zm6.29-2.4a3.67 3.67 0 0 0-2.43.86v-4h-1.56v12h1.59v-4.79a2.37 2.37 0 0 1 2.4-2.51c1.42 0 2.13.78 2.13 2.32v4.91h1.57v-4.91c0-2.43-1.38-3.88-3.7-3.88zm8.88 3.64h-.28c-1.06-.19-1.94-.39-2-1a.69.69 0 0 1 .2-.53 2.54 2.54 0 0 1 1.71-.51 3.06 3.06 0 0 1 2.25.73l.29.26 1-1.09-.3-.27a4.46 4.46 0 0 0-3.2-1.17 4.22 4.22 0 0 0-2.87 1 2.27 2.27 0 0 0-.66 1.65c0 1.95 2 2.27 3.4 2.51s2.25.42 2.23 1.15c0 1-1.45 1.11-2 1.11a3.06 3.06 0 0 1-2.56-1.16l-.26-.38-1.17 1 .19.29a4.41 4.41 0 0 0 3.78 1.76c1.72 0 3.58-.69 3.64-2.59.1-2.18-2-2.53-3.39-2.76zM96.41 22l.28.28 1.09-1.05-.3-.29a4.46 4.46 0 0 0-3.15-1.3 4.24 4.24 0 0 0-4.44 4.42 4.29 4.29 0 0 0 4.44 4.42 4.43 4.43 0 0 0 3.16-1.3l.28-.28-1.09-1.1-.29.29a2.86 2.86 0 0 1-4.93-2c0-3.09 3.54-3.56 4.95-2.09zm6.5-2.43a4.3 4.3 0 0 0-4.4 4.5 4.4 4.4 0 1 0 8.8 0 4.3 4.3 0 0 0-4.4-4.5zm0 1.54a2.8 2.8 0 0 1 2.83 3 2.83 2.83 0 1 1-5.66 0 2.8 2.8 0 0 1 2.83-3zm9.59-1.48a3.52 3.52 0 0 0-2.33.75v-.67h-1.53v8.68h1.59v-5a2.2 2.2 0 0 1 2.19-2.23 2.06 2.06 0 0 1 1.13.31l.36.22.74-1.35-.33-.2a3.5 3.5 0 0 0-1.82-.51zm9.95 1.28a4.51 4.51 0 0 0-7.71 3.14 4.28 4.28 0 0 0 4.4 4.45 4.71 4.71 0 0 0 3.72-1.67l.24-.32-1.19-1-.25.33a3.3 3.3 0 0 1-2.52 1 2.69 2.69 0 0 1-2.73-2.11h7v-.36a4.42 4.42 0 0 0-.96-3.46zm-6 2.42a2.71 2.71 0 0 1 2.73-2.22 2.45 2.45 0 0 1 2.76 2.22z"/></g></g></svg>