<svg xmlns="http://www.w3.org/2000/svg" width="187" height="38" viewBox="0 0 187 38" fill="none"><path d="M114.441 13.249c0 .965.017 1.93-.007 2.897-.012.406.118.58.528.523.49-.075.603.157.604.616 0 1.514.025 1.514-1.489 1.514-1.327 0-2.654-.022-3.981.013-.464.011-.552-.145-.553-.58 0-1.56-.019-1.586 1.512-1.556.561.01.738-.131.724-.712a156.89 156.89 0 0 1 0-5.574c0-.434-.11-.676-.551-.759a4.96 4.96 0 0 1-.681-.236c-1.297-.445-1.245-.435-.886-1.75.199-.724.494-.895 1.138-.556.145.078.323.1.473.172 1.325.646 2.552.803 3.957-.032 1.236-.734 2.737-.724 4.159-.38 1.908.466 3.144 2.013 3.203 4.048.051 1.711.041 3.425.015 5.138-.009.52.164.64.656.639 1.649 0 1.639.013 1.562 1.667-.016.338-.097.46-.451.458-1.689-.016-3.377 0-5.07 0-.073 0-.173.03-.213 0-.549-.498-.132-1.146-.254-1.715-.066-.315.121-.464.418-.403.734.145.747-.276.735-.82-.026-1.326 0-2.654-.011-3.98-.02-2.235-1.304-3.27-3.487-2.815-.094.02-.191.028-.29.05-1.683.423-1.767.53-1.767 2.26l.007 1.873zM163.641 9.272l2.968 7.147c.327-.789.61-1.47.897-2.15.624-1.488 1.244-2.976 1.883-4.458.164-.378.244-.67-.335-.57-.698.122-.831-.202-.808-.833.045-1.24.013-1.24 1.275-1.24 1.376 0 2.753.016 4.127-.01.435-.008.638.113.565.565a.876.876 0 0 0 0 .145c.009 1.347.009 1.372-1.335 1.356-.452 0-.613.188-.777.555-1.266 2.835-2.561 5.659-3.824 8.495-.17.381-.354.56-.79.53a13.823 13.823 0 0 0-1.883 0c-.421.031-.58-.153-.725-.505-1.202-2.784-2.435-5.556-3.622-8.345-.226-.527-.488-.762-1.101-.734-1.276.058-1.24.014-1.311-1.272-.036-.65.145-.816.79-.796 1.567.048 3.138.037 4.707 0 .514-.011.708.154.63.652a.876.876 0 0 0 0 .145c-.01 1.256-.01 1.256-1.331 1.323zM101.326 18.796c-1.062 0-2.124-.016-3.187.009-.4.008-.53-.102-.539-.52-.033-1.604-.05-1.627 1.557-1.606.53.008.703-.113.692-.672a137.403 137.403 0 0 1 0-5.575c.01-.518-.16-.757-.64-.838a2.485 2.485 0 0 1-.344-.106c-1.611-.54-1.594-.533-1.058-2.143.157-.466.344-.511.772-.345.83.323 1.69.561 2.524.87a1.254 1.254 0 0 0 1.203-.1 7.243 7.243 0 0 1 4.365-1.015c.608.047.979.226 1.005.926.023.623.165 1.242.264 1.86.053.328.029.571-.393.58-.191.025-.38.066-.565.12-.374.073-.817.29-1.104.162-.261-.116-.222-.643-.264-1-.042-.356-.265-.354-.524-.325a6.405 6.405 0 0 0-2.266.692c-.278.145-.349.344-.349.638 0 1.906 0 3.814-.02 5.72 0 .415.124.553.533.53.53-.03 1.063.014 1.594-.013.388-.02.476.131.489.5.055 1.637.067 1.635-1.575 1.635l-2.17.016z" fill="#0059FE"/><path d="M80.403 31.633c0-1.666.02-3.332-.013-4.996-.008-.492.145-.597.612-.592 2.148.024 4.297.02 6.445 0 .385 0 .536.071.543.503.026 1.643.045 1.643-1.573 1.643-1.085 0-2.173.017-3.258-.009-.414-.01-.58.058-.58.536 0 1.826-.026 1.826 1.819 1.826.844 0 1.69.014 2.535 0 .35-.009.434.117.452.456.078 1.69.09 1.69-1.605 1.69-.893 0-1.788.021-2.68-.01-.418-.015-.542.12-.512.525.044.597-.181 1.378.12 1.746.302.368 1.127.104 1.721.116 1.087.022 2.174.017 3.26 0 .355 0 .503.077.522.475.076 1.659.092 1.657-1.558 1.657-1.81 0-3.622-.024-5.431.015-.623.014-.87-.1-.837-.797.055-1.595.018-3.19.018-4.784z" fill="#000"/><path d="M69.86 9.595c0 2.148.015 4.297-.014 6.444 0 .508.136.714.642.629a.398.398 0 0 1 .073 0c1.642.01 1.738.129 1.515 1.793-.03.238-.096.34-.342.34H65.36c-.145 0-.348.025-.354-.157a15.62 15.62 0 0 1 .02-1.805c.02-.236.315-.145.496-.165.544-.051 1.263.246 1.593-.132.33-.378.103-1.11.106-1.682.01-3.356 0-6.71.016-10.065 0-.51-.094-.833-.652-.886a1.882 1.882 0 0 1-.42-.107c-.494-.167-1.34-.138-1.415-.499-.112-.542.27-1.183.424-1.786.071-.271.219-.25.435-.188 1.295.372 2.589.751 3.892 1.09.42.11.357.386.357.665.002 2.17.002 4.34.001 6.511zM75.623 12.64c0-.941-.018-1.883.008-2.822.012-.419-.078-.658-.55-.58a1.36 1.36 0 0 1-.218 0c-1.487 0-1.47 0-1.467-1.468 0-.465.123-.615.607-.615 1.615 0 1.638-.023 1.606-1.672-.011-.553.13-.834.705-.918.605-.088 1.322-.662 1.738-.35.365.272.093 1.13.101 1.73.015 1.222 0 1.223 1.219 1.223h1.085c1.094.013.943-.131.952.97.008 1.1 0 1.1-1.101 1.1-.58 0-1.16.012-1.739 0-.314-.01-.426.11-.418.42.043 1.832-.105 3.668.117 5.493.222 1.825 1.147 2.38 2.867 1.749.51-.187.68-.145.814.417.335 1.41.367 1.4-1.046 1.759-3.006.76-5.166-.87-5.272-3.976-.027-.818 0-1.638 0-2.463l-.008.003zM142.699 12.626c0-.965-.014-1.93 0-2.898.009-.375-.107-.534-.491-.494-.216.022-.435 0-.652 0-1.081 0-1.088 0-1.078-1.049.012-1.206-.165-1 1.116-1.014 1.28-.013 1.088.164 1.096-1.049.009-1.341 0-1.341 1.332-1.738 1.211-.355 1.211-.355 1.211.921 0 .458.019.917 0 1.375-.02.388.145.5.511.49.746-.019 1.495.008 2.241-.01.361-.01.499.09.516.482.071 1.594.086 1.594-1.488 1.594-1.774 0-1.784 0-1.771 1.803.008 1.304-.066 2.608.086 3.903.041.481.167.951.373 1.388.418.819 1.211 1.058 2.39.594.652-.256.852-.11.994.536.264 1.203.29 1.187-.904 1.55a4.96 4.96 0 0 1-2.85.04c-1.53-.434-2.499-1.738-2.591-3.538-.05-.962-.009-1.929-.009-2.898l-.032.012z" fill="#0059FE"/><path d="M74.65 26.027c.954-.025 1.9.29 2.814.762.387.198.434.39.229.782-.557 1.09-.532 1.092-1.694.676-.568-.202-1.159-.367-1.766-.275-.547.083-1.047.264-1.17.896-.114.59.233.949.679 1.244.648.435 1.397.639 2.09.97 1.678.803 2.414 2.408 1.811 4.057-.53 1.449-1.715 2.028-3.145 2.156-1.377.127-2.671-.207-3.88-.89-.36-.202-.4-.395-.178-.724.24-.36.35-.882.674-1.087.378-.237.724.29 1.105.435.716.254 1.43.445 2.188.29.517-.106.972-.322 1.09-.909.12-.586-.171-.966-.623-1.273-.744-.503-1.623-.724-2.404-1.146-1.288-.704-1.876-1.837-1.656-3.23.281-1.771 1.663-2.778 3.836-2.734zM65.373 26.025c1.014-.019 2.012.3 2.956.83.29.165.33.299.184.607-.57 1.206-.552 1.201-1.78.777-.64-.222-1.287-.391-1.981-.219-.493.123-.84.374-.932.885-.087.486.165.832.538 1.104.59.435 1.274.671 1.942.939 1.37.549 2.246 1.457 2.268 3.02.021 1.617-.946 2.856-2.563 3.208-1.617.352-3.153.033-4.598-.759-.325-.177-.478-.346-.224-.713.255-.366.38-.936.725-1.137.345-.201.715.32 1.108.464.716.26 1.434.434 2.19.272.482-.106.922-.306 1.044-.87.121-.563-.126-.974-.58-1.292-.558-.392-1.208-.586-1.82-.869-1.918-.88-2.627-2.105-2.223-3.856.343-1.493 1.774-2.424 3.746-2.39zM103.619 26.025c1.014-.019 2.013.3 2.956.83.289.165.33.299.184.607-.57 1.206-.552 1.201-1.781.775-.639-.22-1.288-.39-1.98-.217-.493.123-.84.374-.932.885-.087.487.167.832.538 1.104.591.435 1.275.671 1.942.939 1.371.549 2.246 1.457 2.268 3.02.021 1.617-.946 2.856-2.563 3.208-1.617.352-3.153.033-4.598-.759-.325-.177-.478-.348-.224-.714.255-.367.38-.935.725-1.136.345-.201.716.32 1.108.464.716.26 1.434.434 2.191.272.481-.106.921-.306 1.043-.87.121-.563-.126-.974-.58-1.292-.557-.392-1.209-.586-1.819-.869-1.918-.88-2.628-2.105-2.224-3.856.343-1.493 1.775-2.424 3.746-2.39z" fill="#000"/><path d="M155.932 11.914c0 1.375.023 2.753-.011 4.125-.013.517.158.642.652.639 1.602-.007 1.593.013 1.564 1.593 0 .397-.097.54-.52.537a296.6 296.6 0 0 0-6.003 0c-.403 0-.526-.108-.535-.522-.031-1.594-.046-1.613 1.55-1.605.475 0 .677-.089.668-.626a208.071 208.071 0 0 1 0-6.221c0-.48-.145-.666-.609-.591a.956.956 0 0 1-.144 0c-1.481 0-1.462 0-1.464-1.468 0-.459.112-.627.599-.614 1.205.033 2.412.033 3.622 0 .495-.014.663.113.649.632-.042 1.372-.018 2.748-.018 4.121z" fill="#0059FE"/><path d="M92.74 32.646c0-1.326-.015-2.653.009-3.978 0-.387-.11-.505-.487-.481-.481.029-.97-.04-1.449.018-.606.073-.703-.188-.691-.724.03-1.427 0-1.427 1.418-1.427 1.833 0 3.667.015 5.505-.01.463-.007.618.101.616.591 0 1.557.016 1.557-1.524 1.557-1.211 0-1.211 0-1.211 1.186 0 2.412-.013 4.824.012 7.243 0 .471-.118.597-.591.593-1.604-.013-1.604.007-1.604-1.594l-.003-2.974z" fill="#000"/><path d="M154.157.553a2.486 2.486 0 0 1 2.462 2.439 2.428 2.428 0 0 1-.712 1.753 2.43 2.43 0 0 1-1.751.717 2.437 2.437 0 0 1-2.254-1.566 2.455 2.455 0 0 1-.161-.952 2.482 2.482 0 0 1 2.416-2.39z" fill="#FE9144"/><path d="M138.831 17.034c-.627-.217-1.53-.192-1.81-.724-.279-.532-.084-1.363-.094-2.062v-.507h-.011c0-.747.027-1.496 0-2.242-.118-2.608-1.409-4.258-3.686-4.691-1.521-.29-3.018-.055-4.516.258-.869.18-1.341.595-1.344 1.515 0 .494-.42 1.115-.136 1.428.284.313.944.222 1.434.34.466.114.756.028.748-.52-.009-.658.363-.935.977-.974.312-.02.623-.068.935-.081 1.847-.083 2.752.767 2.897 2.619.042.556-.156.623-.634.621-1.349 0-2.701-.121-4.044.113-1.882.332-2.993 1.477-3.074 3.2-.098 1.957.8 3.188 2.74 3.679 1.53.384 3.117.468 4.533-.248 1.098-.555 2.028-.5 3.042 0 .045.017.091.031.138.042 1.73.58 1.721.58 2.193-1.196.086-.326.049-.454-.288-.57zm-4.593-1.33c.073.546-.163.84-.65 1.042-1.055.435-2.125.623-3.244.32-.792-.214-1.188-.743-1.182-1.52.006-.776.42-1.303 1.173-1.545.686-.216 1.39-.086 2.245-.145.415.019 1.172-.167 1.515.129.403.346.065 1.133.143 1.72zM62.065 16.64a2.025 2.025 0 0 0-.21-.055c-.395-.08-.53-.306-.511-.724.035-.796.01-1.594.01-2.39h-.042c0-.82.045-1.643-.009-2.462-.156-2.428-1.7-3.994-4.11-4.274-1.415-.164-2.783.057-4.155.362-.743.166-1.1.497-1.207 1.319-.217 1.7-.28 1.68 1.36 1.945.42.067.598-.026.674-.462.054-.305-.044-.692.338-.9 2.037-1.116 4.248.063 4.478 2.384.045.447-.035.631-.55.627-1.373-.013-2.753-.126-4.118.106-1.927.329-3.064 1.521-3.126 3.315-.065 1.883.941 3.175 2.873 3.601 1.82.401 3.601.277 5.27-.62a1.106 1.106 0 0 1 1.014-.081c.832.317 1.687.58 2.525.87.302.108.447.073.58-.265.653-1.724.665-1.72-1.084-2.296zm-3.36-.869c.063.494-.162.745-.58.936-1.087.491-2.204.675-3.367.358-.76-.207-1.122-.703-1.13-1.47-.008-.805.362-1.325 1.111-1.576.68-.227 1.384-.101 2.078-.094.596 0 1.393-.233 1.738.061.407.343.07 1.168.15 1.778v.007zM87.182 13.772c2.363.03 4.729 0 7.099-.012 1.315 0 1.315 0 1.304-1.337-.04-2.834-1.487-4.885-3.892-5.515-3.83-1.015-7.099 1.07-7.678 4.988-.37 2.515.177 4.843 2.463 6.284 2.45 1.542 5.034 1.449 7.55.04 1.268-.708 1.24-.725.469-1.962-.22-.35-.35-.462-.75-.176-1.274.912-2.726 1.17-4.264.977-1.458-.183-2.513-1.114-2.88-2.476-.161-.553-.124-.82.579-.811zm-.538-2.512a3.387 3.387 0 0 1 3.282-2.463c1.449 0 2.52.794 2.889 2.15.233.869.184.925-.725.927h-2.392c-.869 0-1.738-.03-2.607.01-.546.029-.571-.172-.447-.624zM178.537 13.773c2.364.025 4.73 0 7.099-.013 1.396 0 1.396 0 1.351-1.422-.087-2.718-1.373-4.68-3.622-5.35-3.711-1.102-7.511.702-8.007 5.203-.342 3.115 1.103 5.702 3.755 6.618 2.157.745 4.271.6 6.275-.555 1.314-.758 1.304-.753.513-2.01-.231-.367-.371-.424-.754-.153-1.277.906-2.731 1.16-4.268.966-1.479-.188-2.564-1.167-2.897-2.557-.116-.495-.064-.737.555-.727zm-.542-2.264c.206-1.38 1.594-2.608 3.091-2.704 1.594-.094 2.779.725 3.156 2.174.211.82.155.893-.701.895h-5.14c-.238.006-.468.053-.406-.365z" fill="#0059FE"/><path d="M54.857 25.618c-.373.54-4.675 10.369-5.08 11.577.454-.023.908-.02 1.36.011.572.07.842-.144 1.05-.683.572-1.513.611-1.391 2.265-1.536 1.493-.13 2.49.178 2.736 1.805.036.245.155.423.48.412.71-.026 1.425-.01 2.214-.01l-5.025-11.576zm-1.274 7.512l1.104-2.666 1.039 2.666h-2.143z" fill="#000"/><path d="M39.208 19.662a19.596 19.596 0 0 1-5.81 13.949L19.545 19.658 19.485 0h.06a19.664 19.664 0 0 1 19.663 19.662z" fill="#FF9144"/><path d="M16.876 20.997L4.881 9.127a16.832 16.832 0 0 1 11.943-5.005l.052 16.875z" fill="#89005F"/><path d="M16.876 20.997L4.963 32.953a16.878 16.878 0 0 1-.082-23.826l11.995 11.87z" fill="#BD2C5C"/><path d="M28.768 32.973a16.878 16.878 0 0 1-23.805-.02l11.913-11.956 11.892 11.976z" fill="#E65C52"/></svg>