<svg width="200" height="73" viewBox="0 0 200 73" fill="none" xmlns="http://www.w3.org/2000/svg"><g clip-path="url(#a)"><path d="M39.298 61.579v-.965H31.93V71.93h1.053v-5.614h5.701v-.965h-5.701v-3.86h6.315v.088zM45 66.229v.262c.088 2.456 1.14 5.702 4.912 5.702 3.51 0 4.825-3.158 4.825-6.053 0-3.596-1.842-5.79-4.825-5.79-4.123 0-4.912 3.773-4.912 5.878zm1.14.087c0-2.28.965-5 3.772-5 2.895 0 3.684 2.982 3.684 4.737v.087c0 2.193-.789 5.176-3.771 5.176-3.246-.088-3.685-3.597-3.685-5zm14.825-5.702V71.93h1.052v-5h2.632l3.597 5h1.315l-3.684-5c1.842 0 3.334-1.053 3.334-3.07 0-.877-.351-1.667-.702-2.106-.702-.877-1.93-1.052-3.07-1.14h-4.474zm1.14 5.35V61.58h3.509c.877 0 1.842.088 2.368.965.351.526.351 1.053.351 1.228 0 1.842-1.403 2.193-2.807 2.193h-3.42zm30.176-3.157c-.702-1.93-2.369-2.456-3.86-2.456-2.544 0-3.772 1.403-3.772 2.895 0 2.105 1.754 2.631 3.07 2.982l1.316.351c1.579.439 2.368 1.053 2.368 2.28 0 1.317-1.052 2.37-3.157 2.37-1.667 0-2.544-.703-2.807-1.404v-.088c-.176-.263-.264-.614-.264-1.228l-1.052.526c.438 2.193 2.017 3.158 4.21 3.158 1.492 0 2.281-.439 2.807-.79 1.228-.877 1.404-2.017 1.404-2.543 0-1.755-1.316-2.632-3.334-3.246l-1.315-.35c-1.053-.264-2.193-.703-2.193-2.018 0-.965.701-2.018 2.631-2.018 1.404 0 2.106.702 2.457 1.14.263.264.35.614.438.965l1.053-.526zm12.894-1.228v-.965h-8.157v.965h3.596v10.35h1.053V61.58h3.508zm13.246 10.35l-4.474-11.315h-.877l-4.649 11.316h1.228l1.316-3.421h5.088l1.315 3.42h1.053zm-2.807-4.297h-4.386l2.193-5.79 2.193 5.79zm8.86-7.018V71.93h1.052v-5h2.632l3.596 5h1.316l-3.684-5c1.842 0 3.333-1.053 3.333-3.07 0-.877-.351-1.667-.701-2.106-.702-.877-1.93-1.052-3.071-1.14h-4.473zm1.052 5.35V61.58h3.509c.877 0 1.842.088 2.368.965.351.526.351 1.053.351 1.228 0 1.842-1.403 2.193-2.807 2.193h-3.421zm20.965-4.385v-.965h-8.158v.965h3.597v10.35h1.052V61.58h3.509zm14.474-.965h-1.053v7.369c0 2.368-1.14 3.245-3.158 3.245h-.175c-1.316 0-2.983-.614-2.983-2.982v-7.632h-1.052v7.28c0 4.036 3.158 4.299 4.21 4.299 3.246 0 4.211-1.93 4.211-4.386v-7.193zm7.807 0V71.93h1.053v-5.088h3.421c1.666 0 2.719-.088 3.508-1.052.439-.615.614-1.316.614-2.018 0-1.14-.438-1.842-.701-2.193-.614-.702-1.228-.877-3.071-.877l-4.824-.088zm1.053 5.263v-4.386h3.859c.877 0 1.755 0 2.281.877.351.527.351 1.053.351 1.316 0 1.667-1.053 2.193-2.456 2.193h-4.035zm21.14-3.07l-.965.526a3.238 3.238 0 0 0-.439-.965c-.35-.438-1.052-1.14-2.456-1.14-1.93 0-2.631 1.053-2.631 2.018 0 1.49 1.315 1.842 2.368 2.105l1.053.263c2.017.526 3.333 1.404 3.333 3.246v.175c0 .614-.263 1.579-1.403 2.456l-.176.088c-.526.35-1.316.702-2.631.702-2.193 0-3.772-.965-4.211-3.158l1.053-.526c0 .614.087.877.263 1.228v.087c.351.702 1.14 1.491 2.895 1.491 2.105 0 3.157-1.14 3.157-2.368s-.701-1.842-2.193-2.193l-1.491-.35c-1.316-.352-3.07-.966-3.07-2.983 0-1.58 1.14-2.895 3.772-2.895 1.491-.263 3.07.263 3.772 2.193z" fill="#21313C"/><path d="M23.333 21.053C20.526 8.772 14.737 5.439 13.246 3.158A26.507 26.507 0 0 1 11.666 0c-.087 1.053-.263 1.754-1.14 2.632C8.596 4.298.702 10.702 0 24.649c-.614 12.983 9.561 21.053 10.877 21.842 1.053.526 2.28 0 2.895-.438 5-3.334 11.667-12.369 9.561-25z" fill="#10AA50"/><path d="M12.018 39.561c-.264 3.246-.44 5.088-1.053 6.93 0 0 .438 3.07.702 6.316h1.052c.264-2.28.614-4.561 1.14-6.842-1.315-.614-1.754-3.509-1.841-6.404z" fill="#B8C4C2"/><path d="M13.86 46.053c-1.404-.614-1.755-3.685-1.842-6.492.35-4.649.438-9.21.263-13.86-.088-2.455 0-22.455-.614-25.438.438.965.965 1.93 1.49 2.895 1.58 2.28 7.37 5.614 10.176 17.895 2.106 12.631-4.561 21.579-9.473 25z" fill="#12924F"/><path d="M197.018 41.579a2.958 2.958 0 0 1-2.983-2.983c0-1.666 1.316-2.982 2.983-3.07 1.666-.087 2.982 1.316 3.07 2.983 0 .79-.263 1.579-.877 2.193-.615.614-1.404.877-2.193.877zm0-5.702c-1.141 0-2.106.614-2.544 1.667-.439 1.053-.176 2.193.614 2.982.789.79 1.93 1.053 2.982.614 1.053-.438 1.667-1.403 1.667-2.544 0-.701-.263-1.403-.79-1.93a2.72 2.72 0 0 0-1.929-.789zm.701 4.65l-.789-1.667h-.614v1.666h-.439v-3.86h1.141c.877 0 1.228.352 1.228 1.053 0 .527-.264.877-.79 1.053l.79 1.754h-.527zm-1.403-2.106h.702c.526 0 .701-.175.701-.702 0-.526-.175-.614-.789-.614h-.614v1.316zM152.105 38.86c.79.614 2.456.965 3.86.965 1.842 0 3.684-.351 5.439-1.93 1.842-1.667 3.07-4.21 3.07-8.246 0-3.86-1.492-7.017-4.474-8.86-1.667-1.052-3.947-1.49-6.491-1.49-.702 0-1.491 0-1.93.262-.175.176-.263.351-.351.527-.088.701-.088 5.965-.088 9.035 0 3.158 0 7.631.088 8.158.088.438.351 1.228.877 1.579zm-7.807-21.404c.702 0 3.158.088 4.298.088 2.193 0 3.685-.088 7.808-.088 3.421 0 6.315.965 8.333 2.72 2.456 2.192 3.86 5.175 3.86 8.771 0 5.176-2.369 8.158-4.737 9.913-2.369 1.754-5.439 2.807-9.825 2.807-2.368 0-6.316-.088-9.649-.088h-.088c-.175-.351.263-1.491.527-1.579.877-.088 1.14-.175 1.579-.35.701-.264.877-.615.964-1.93.088-2.37.088-5.264.088-8.422v-8.245c-.088-1.229-.614-1.492-1.667-1.755-.701-.175-1.491-.263-2.193-.35-.087-.176.527-1.229.702-1.492zM178.246 19.474c-.176 0-.351.438-.351.614 0 1.403-.088 5-.088 7.456 0 .088.088.175.175.175.527 0 1.755.088 2.807.088 1.492 0 2.369-.175 2.807-.439 1.229-.614 1.843-1.93 1.843-3.42 0-3.334-2.369-4.65-5.79-4.65-.526.088-.965.088-1.403.176zm8.772 15.35c0-3.42-2.457-5.263-7.018-5.263h-2.018c-.087 0-.263.088-.263.176 0 2.456 0 6.316.088 7.807.088.614.526 1.579 1.14 1.842.614.35 2.018.439 2.983.439 2.719 0 5.088-1.492 5.088-5zm-15.79-17.28c.351 0 1.404.088 4.035.088 2.456 0 4.474-.088 6.93-.088 2.982 0 7.105 1.052 7.105 5.526 0 2.193-1.579 3.948-3.596 4.825-.088 0-.088.088 0 .175 2.894.702 5.438 2.456 5.438 5.877 0 3.334-2.017 5.351-5.087 6.667-1.842.79-4.035 1.053-6.404 1.053-1.754 0-6.403-.176-9.035-.176-.263-.087.263-1.316.439-1.579a5.65 5.65 0 0 0 1.754-.263c.965-.263 1.053-.526 1.14-1.93.088-1.228.088-5.438.088-8.508v-8.334c0-1.052-.438-1.403-1.14-1.579-.614-.087-1.579-.263-2.369-.35-.087-.088.527-1.229.702-1.404zM31.93 41.579c-.088-.263-.176-.526-.088-.79 0-.175 0-.35.088-.526.526-.088.965-.175 1.491-.263.702-.175.965-.526.965-1.404.088-2.105.088-5.964.088-8.684v-.087c0-.264 0-.702-.351-.965-.614-.439-1.316-.702-2.018-.878-.35-.087-.526-.263-.526-.438 0-.176.175-.439.614-.527 1.14-.087 4.035-.789 5.263-1.315.088.175.176.35.176.526v.35c0 .352-.088.79-.088 1.229 0 .088.088.175.175.263.088 0 .176 0 .264-.088 2.192-1.754 4.21-2.368 5.175-2.368 1.667 0 2.982.79 3.947 2.456.088.088.176.088.263.176.088 0 .176 0 .176-.088 2.017-1.58 4.035-2.456 5.35-2.456 3.159 0 5.089 2.368 5.089 6.403v7.018c0 .175.263.702.614.79.438.262 1.14.35 2.017.526.088.263-.088 1.14-.175 1.315h-.878c-.701 0-1.578-.087-2.631-.087-2.105 0-3.246 0-4.298.087-.088-.263-.088-1.14 0-1.315l1.315-.264c.702-.263.878-.526.878-1.403 0-.614.175-6.228-.088-7.544-.176-1.404-1.228-2.982-3.509-2.982-.877 0-2.193.35-3.509 1.315-.087.088-.087.176-.087.351.175.702.175 1.58.175 2.807v6.404c0 .79.439.965.79 1.052.175 0 .35.088.526.088.263.088.614.176 1.052.263a1.8 1.8 0 0 1 0 .965c0 .088-.087.263-.175.351-1.14 0-2.368-.088-4.123-.088h-3.596c-.088-.175-.088-.438-.088-.701 0-.176 0-.439.088-.614l.438-.088c.439-.088.79-.176 1.053-.176.614-.175.79-.526.79-1.228.087-1.666.175-6.666 0-7.894-.44-2.018-1.58-2.983-3.334-2.983-1.053 0-2.368.526-3.509 1.316-.175.175-.35.526-.35.79v8.859c0 .439.175.877.964 1.053.176.087.439.087.79.175.175 0 .438.088.614.088.088.438 0 .877-.088 1.316h-1.228c-.702 0-1.667-.088-2.632-.088-1.228 0-2.017 0-2.719.088-.35-.088-.79-.088-1.14-.088zM70.877 27.28c-.614 0-1.316.176-1.842.527-1.316.79-2.017 2.456-2.017 4.825 0 4.473 2.28 7.631 5.526 7.631.877 0 1.754-.263 2.368-.877.965-.79 1.491-2.456 1.491-4.737 0-4.386-2.193-7.368-5.526-7.368zm.614 14.65c-5.877 0-7.895-4.298-7.895-8.246 0-2.807 1.14-5 3.422-6.491 1.579-.965 3.42-1.491 5.263-1.579 4.473 0 7.544 3.246 7.544 7.807 0 3.158-1.228 5.614-3.597 7.105-1.14.702-3.07 1.404-4.737 1.404zM130.351 27.28c-.614 0-1.316.176-1.842.527-1.316.79-2.018 2.456-2.018 4.825 0 4.473 2.281 7.631 5.527 7.631.877 0 1.754-.263 2.368-.877.965-.79 1.491-2.456 1.491-4.737-.088-4.386-2.281-7.368-5.526-7.368zm.614 14.65c-5.877 0-7.895-4.298-7.895-8.246 0-2.807 1.141-5 3.421-6.491 1.579-.965 3.421-1.491 5.263-1.579 4.474 0 7.544 3.246 7.544 7.807 0 3.158-1.228 5.614-3.596 7.105-1.228.702-3.158 1.404-4.737 1.404zM110.614 27.105c-1.754 0-2.982 1.404-2.982 3.597s.964 4.824 3.859 4.824c.527 0 1.404-.175 1.755-.701.614-.614 1.052-1.843 1.052-3.158.088-2.895-1.316-4.562-3.684-4.562zm-.175 15.176c-.527 0-1.053.087-1.492.35-1.403.878-2.105 1.843-2.105 2.895 0 .965.351 1.755 1.228 2.456.965.878 2.369 1.229 4.123 1.229 3.509 0 5.088-1.843 5.088-3.772 0-1.316-.614-2.193-2.018-2.632-.965-.35-2.719-.526-4.824-.526zm.263 8.86c-2.106 0-3.597-.44-4.913-1.404-1.228-.965-1.842-2.369-1.842-3.421 0-.614.264-1.228.702-1.755.351-.438 1.228-1.228 3.158-2.544.088 0 .088-.087.088-.175s-.088-.175-.088-.175c-1.579-.614-2.105-1.667-2.281-2.193v-.088a.464.464 0 0 1 .176-.614c.263-.175.614-.351.965-.614a8.276 8.276 0 0 0 1.579-1.053c.087-.087.087-.175.087-.175 0-.088-.087-.176-.087-.176-2.369-.79-3.597-2.543-3.597-5.263 0-1.754.79-3.333 2.193-4.298.965-.79 3.333-1.667 4.912-1.667h.088c1.579 0 2.544.351 3.772.878.702.263 1.491.35 2.193.35 1.316 0 1.93-.438 2.368-.877.088.263.088.439.088.702 0 .526-.088 1.14-.438 1.579-.264.35-.878.614-1.492.614h-.175c-.351 0-.614-.088-.877-.175l-.176.087c-.087.088 0 .176 0 .263v.088c.088.526.176.965.176 1.491 0 2.807-1.141 4.035-2.281 5-1.14.877-2.544 1.404-4.035 1.58h-.877c-.263.087-.965.438-.965.964s.351 1.14 1.754 1.228l.965.088c1.93.175 4.386.263 5.526.702 1.579.526 2.632 2.017 2.544 3.684 0 2.544-1.842 4.912-4.824 6.403a10.363 10.363 0 0 1-4.386.965zM101.754 40.263c-.877-.088-1.491-.263-2.193-.614-.175-.175-.263-.35-.263-.526-.088-1.228-.088-4.65-.088-6.93 0-1.842-.35-3.421-1.052-4.65-.965-1.315-2.28-2.104-3.948-2.104-1.49 0-3.508 1.052-5.175 2.456 0 0-.263.263-.263-.088 0-.35.088-1.14.088-1.667 0-.263-.088-.526-.263-.701-1.053.526-4.123 1.315-5.264 1.403-.79.175-1.052.965-.175 1.228.702.176 1.403.526 2.017.877.351.264.351.614.351.965 0 2.544 0 6.492-.087 8.684 0 .878-.264 1.14-.878 1.316h.088c-.439.088-.965.176-1.403.263-.176.176-.176 1.316 0 1.58.35 0 2.368-.088 4.035-.088 2.28 0 3.42.087 4.035.087.263-.263.35-1.315.175-1.579a4.968 4.968 0 0 1-1.579-.263c-.614-.175-.79-.438-.79-1.14-.087-1.842-.087-5.614-.087-8.246 0-.701.175-1.052.439-1.316.79-.701 2.017-1.14 3.158-1.14 1.052 0 1.842.351 2.368.79a3.355 3.355 0 0 1 1.14 2.193c.176 1.49.088 4.386.088 6.93 0 1.403-.088 1.754-.614 1.842a8.824 8.824 0 0 1-1.579.35c-.263.264-.175 1.316 0 1.58 1.053 0 2.193-.088 3.86-.088 2.105 0 3.509.087 4.035.087-.088-.263 0-1.228-.176-1.49z" fill="#21313C"/></g><defs><clipPath id="a"><path fill="#fff" d="M0 0h200v72.193H0z"/></clipPath></defs></svg>