<svg height="12" viewBox="0 0 24 12" width="24" xmlns="http://www.w3.org/2000/svg"><path d="m23.707 5.291-4.778-4.778c-.2859943-.28590792-.7160366-.37142191-1.0896546-.21667798-.3736179.15474393-.6172591.51928208-.6173454.92367798v3.028c0 .13807119-.1119288.25-.25.25h-15.47199996c-.82842715.00000002-1.5.67157289-1.5 1.5s.67157285 1.49999998 1.5 1.5h15.47199996c.1380712 0 .25.11192881.25.25v3.028c.0000863.4043959.2437275.7689341.6173454.923678.373618.1547439.8036603.0692299 1.0896546-.216678l4.778-4.778c.3903819-.39049985.3903819-1.02350015 0-1.414z" fill="#372094"/></svg>
