<svg xmlns="http://www.w3.org/2000/svg" viewBox="0 0 65.95 57.06"><defs><style>.cls-1{fill:#ff6490}</style></defs><title>chalk-arrow-up</title><g id="Layer_2" data-name="Layer 2"><g id="Layer_1-2" data-name="Layer 1"><path class="cls-1" d="M.06 42.44c.07 0 .27.1.25 0L0 42.32zM.76 42.22a1.36 1.36 0 0 0-.68-.33c.28.16.15.14.49.33 0 .07-.13.07-.25 0 .07 0-.1.07.09.17s.31-.1.14-.26a.57.57 0 0 1 .21.09zM2.93 36.47zM4 32.8l.06.06L4 32.8zM4.47 32.24s.02.01 0 0zM2.93 36.47l.13-.07c-.06-.04-.06.03-.13.07zM.25 41.18a.21.21 0 0 0 .07.08v-.06zM2.77 38.16l.12.06zM2.47 39.42s-.25-.11-.36-.16c.11 0 .15.08.17.11zM1.42 41.24zM3.07 37.29zM3.94 1.65zM5.19.04l.02.02.15-.01-.17-.01zM5.05 31.14H5s.07.02.05 0zM6.4 20.22c-.26.1-.3-.23-.6-.07.11 0 .42.21.6.07zM.29 41.16a.15.15 0 0 1 0-.05s-.01.04 0 .05zM5.8 20.15zM5.38 28.39zM4.63 30.34zM5.17 27.27s.07 0 0-.07.05.05 0 .07zM5.33 26.18h-.06zM4.31 4.93l.25-.06c-.2.02-.28-.13-.25.06z"/><path class="cls-1" d="M.4 41.23c-.07 0-.1 0-.11-.07zM3 26.88l.07-.16a.36.36 0 0 0-.07.16zM4.5 12.71s-.03-.01 0 0zM3.09 26.21a.5.5 0 0 0 .21-.07h-.07zM4.57 4.86z"/><path class="cls-1" d="M3.83 3.77c0 .16.37.05.58.07C4.52 4 4.14 4 4 4c.11.12.45.19.44.28a.31.31 0 0 1-.16 0c.3.11 0 .38.42.51h-.09a3.15 3.15 0 0 1 .5-.05c0 .07.24.12 0 .17 0 0-.09 0-.17-.06L5 5c-.34.09-.13-.1-.38-.08.12.14.42.3.33.43-.34 0-.13-.26-.42-.09L4.65 5c-.53.17 0-.11-.53 0-.08.24.19.25.1.49h.47c.35.32-.84.3-.38.53.23.05.66.06.44.24h-.39c0 .23.56.11.31.36-.15 0-.13-.17-.18-.14-.3.17.22.1.23.22h-.34c.06.24.32.5.39.77-.1 0-.21-.05-.31 0 .19.33 0 .72-.22 1.05l.29.12s-.13.06-.19 0c-.11.13.19 0 .3.06s-.17.1-.26.05c.25.22.54.63.23.87h-.09c-.12.18.6.2.33.38H4.8c-.12.4.15.84-.3 1.15.42.06-.19.39.4.42-.3.23-.4.16-.6.48 0 .09.37.13.43.24h-.29l.32.15-.37.07.08.1a.3.3 0 0 1 .23-.07c.14.16-.22.38-.38.38l.26.37c-.12 0-.17-.07-.24-.12.31.2-.33 0 0 .21a.71.71 0 0 1 .25 0 .31.31 0 0 0-.13.44h-.21c-.06.27.08.58.06.88.1-.11.47-.07.5 0h-.33c.2.07.13-.09.37 0 0 .11-.37.06-.48 0l.11.14a1.89 1.89 0 0 1-.27 0c.2.07-.34.23 0 .32h-.1a5.77 5.77 0 0 0 .1.7c.28 0 .21.11.44.2-.1.18-.34.37-.33.59s.23.06.4.14c-.26 0-.25.22-.42.09a1.34 1.34 0 0 0 .21.69c.11 0 .16-.07.24 0s-.12.13-.24.11c.36.4-.8.81-.29 1.15l.25.33c-.06.14-.18-.1-.35 0 .4.37-.11.52.15.82-.77.14 0 .76-.52 1h.18c.17.09-.11.08-.15.13.14 0 .17-.06.26 0 .16.65-.41 1.27-.64 1.89-.07.23.9.24.44.49l-.32-.12c.34.52-.13 1 .13 1.47-.07 0-.17-.05-.16-.1-.25.06-.06.36.13.39 0 .07-.18 0-.28 0s.27.29 0 .31c0 0-.07 0-.09-.06s-.07.29.21.27c-.16.15.07.35-.11.46.29.14-.19.27.24.37-.45-.08-.4.25-.21.39-.13-.06-.16.07-.34 0 0 .13 0 .25.28.27-.57.14.35.53-.35.55a4.29 4.29 0 0 1 .33 1.14c-.44-.09 0-.38-.45-.44.13.35.48.6.32.89-.07.07-.18-.08-.26-.12.13.35-.16.6 0 .93a.22.22 0 0 1-.14-.09c0 .06-.09.12.11.15v-.06c.31 0 .57.34.72.38-.56-.21-.2.25-.9 0a.38.38 0 0 0 .25.13h-.27c.07.22.3.19.26.37a1.61 1.61 0 0 1-.24-.1c.17.13.34.26.23.39-.06 0-.14 0-.13-.06 0 .27.42.55.18.8-.41-.17-.16.07-.53 0l.08.18h.19c0 .13.2.31.06.4l-.13-.13v.27l.17-.11c.16.18.47.08.32.24 0 0 0 .13-.27.16.1.09.21.19.1.27s-.4-.11-.48-.11c.29.13 0 .33.32.49a.94.94 0 0 0-.3-.09l.24.11h-.28c-.09.18.48 0 .23.22 0 0-.06 0-.08-.07-.15.2.06.47-.11.64-.38 0 0-.2-.37-.2 0 .31.3.71.14 1h.05c.51.16-.31.15-.1.35a.57.57 0 0 0-.23-.25c-.13.17 0 .43.11.76L2 36.06c-.15.09-.14.28-.23.39.12.07.08.14.29.14-.85.19.22.84-.5 1 0 0-.09-.13-.1-.09v.32h.34c.19 0 .2.18.18.25-.11-.17-.36-.1-.5-.07.07 0 .14 0 .21.06-.44 0 .44.15.12.28H1.7c0 .09.17.21.12.28-.27 0-.1-.12-.31-.18 0 .12.42.36.14.4-.06-.07 0-.14-.1-.21-.33 0-.26.06-.33.14l-.22.1h.1c.63.33 0 .33.42.65-.36-.31-.23-.1-.52-.2-.09 0-.21.08-.28 0 .21.16-.23.1.08.33-.1 0 0 .1-.27 0 0 .14.17 0 .29.06.27.28-.52.32-.16.71.11.28.41.42.5.68-.16.05-.28-.1-.28-.1-.17.07-.17.17-.1.31a.45.45 0 0 0-.27 0c0 .09.32.16.15.24a2.4 2.4 0 0 1-.35-.2c.05.13.2.28.25.42-.17 0-.23-.14-.32-.21a.58.58 0 0 0 .3.47h.12s-.23 0-.26-.09.13-.12.23-.1v.09c.57.09 0-.33.08-.47l.38.19-.28-.26c.11 0 .34 0 .38.14.23 0-.11-.14.14-.17a.08.08 0 0 1 .07 0l-.09-.14c.08 0 .29.07.21.12.29-.12-.2-.4.12-.38-.05-.31-.28-.11-.57-.42l.76.08-.23-.22s.06-.07.17 0c-.17-.16-.13 0-.3-.14.31-.05 0-.4.46-.3-.21-.11-.21.08-.32-.11.51.1 0-.19.22-.25.25.11.08.19.34.13-.42-.2.16-.21.11-.34-.35-.1-.08-.27-.15-.47.11 0 .28-.27.46-.4h.06c-.35-.13-.23-.28-.27-.42a.63.63 0 0 1 .37.2v-.11a.29.29 0 0 1-.17-.19l.26.1c0-.16-.23-.39 0-.54-.24-.08-.73 0-.84-.28.14 0 .37.08.41.15s-.1-.09 0-.11l.2.14c.12-.06-.18-.1-.14-.16.19.05.15 0 .3 0s-.09 0 0 .09a.44.44 0 0 1 .35-.13c-.11 0-.26-.07-.27-.13s.24 0 .36-.06C3 37 3.2 37 2.92 36.89h.23c-.11-.11.06-.38-.27-.37-.22-.33.3-.5.24-.79h.1c-.07-.18 0-.36-.16-.52 0 0 .2-.07.31 0 0-.13-.15-.17.05-.31.14.16.16 0 .09.15.12-.13.28-.13.05-.36.23.11.34 0 .28-.13l-.2.07a.32.32 0 0 1 .06-.23l.32.11c.47-.23-.54-.72.17-.81-.21-.13-.2.14-.45 0 .08-.13.58-.18.59-.23.22-.16-.43-.29-.26-.47-.12 0-.44 0-.51-.22s.53-.07.6 0 0 0-.08 0a.16.16 0 0 0 .21.1h-.11c.13 0 .17-.25.35-.16-.09-.13-.18-.09-.26 0 .21-.15.07-.29.22-.46h-.2c.2-.25-.2-.17-.21-.37.2-.07.42.13.3-.1.14-.09.31 0 .4.1-.19-.22.21-.3.27-.39l.08.11a.18.18 0 0 1 0-.16h-.32c.05 0 .06-.09.16-.07-.14-.09-.4 0-.58-.19.13 0-.08-.25.23-.21-.15.21.32 0 .33.24v-.14a.1.1 0 0 1 .08 0c.32-.17-.33-.17-.28-.39.17.06.34 0 .31 0s-.3 0-.42-.12c.16-.12-.07-.18 0-.25l-.08.07c-.17-.06-.13-.13-.17-.24.14 0 .08.11.14.08-.28-.17.37-.19.19-.39.13-.05.33.05.42 0-.19-.22.27-.15.12-.37-.24 0-.19 0-.39-.14l.13.37-.31-.26c0 .09.11.22.07.27-.18-.13-.12-.11-.32-.1.37-.06-.16-.29.1-.39l.58.11c.3-.17-.23-.44 0-.7L5 28.7c-.22-.08 0-.18-.08-.29a.84.84 0 0 0 .4 0c-.15 0 0-.21-.34-.3L5.2 28c.14-.21-.51-.35-.41-.56.2.1.36 0 .48.19 0-.07.06-.13-.07-.16.13 0-.23-.25 0-.28-.08 0-.28-.09-.25-.17h.1c-.1 0-.11-.15-.34-.11.64-.13 0-.64.6-.76a2 2 0 0 1-.07-.52h.07c.21-.18-.54-.2-.31-.4s.15.15.28.09c.65.06 0-.29.35-.39.24-.09-.2-.32-.13-.51h.1a1 1 0 0 1-.46-.63c.25.09.12.1.38.1 0-.09-.41 0-.47-.2a1.31 1.31 0 0 1 .55-.12v.16c.36 0 0-.2.08-.28h.15c0-.25-.41-.3-.35-.55h-.11c-.37-.19.23-.09 0-.27h.4a2.33 2.33 0 0 1-.4-.54 2 2 0 0 1 .56.48.35.35 0 0 0-.18-.39s.12.1.06.13c-.3-.15-.43-.31-.4-.5.76.11.25-.46.85-.53-.25-.36.18-.64.17-1-.61.08 0-.11-.62-.14v-.13l.39-.24c.18 0 .13.1.26.1.06-.19.27-.06.44-.17-.22 0-.31-.09-.21-.2l-.3.13c-.3-.3.53-.19.24-.49l.18.1c-.1-.15.05-.52-.43-.7h.28c.1-.33-.47-.79-.15-1h.15c0-.07-.27-.13-.12-.2s.15 0 .16 0-.25-.18-.16-.26l.16.08c.22-.32-.38-.53-.46-.81a.67.67 0 0 0 .68-.35H7c.07-.38-.34-.67-.5-1 .49-.2.23-.74.51-1.08a.45.45 0 0 1-.41.08c.09-.08-.3-.24.11-.21.4-.05.3-.23.31-.36h-.53c.77-.33-.27-.92.42-1.1-.13-.09-.13-.19-.26-.28h.28a1 1 0 0 0 0-.64l.2.06c0-.16-.81-.21-.83-.36h.42c0-.28.36-.57 0-.85.06 0 .18 0 .2.06 0-.13.28-.52-.3-.47.38 0 0-.29-.14-.44h.28c-.36-.12-.46-.13-.56-.31s.22 0 .15 0c.18-.1-.22-.1-.08-.27l.18.06c0-.15-.08-.13-.28-.21s.07-.28.32-.31c-.15 0-.36-.09-.29-.18a.28.28 0 0 1 .18 0C6.57 8 6 7.87 6.31 7.7a.42.42 0 0 0 .17 0v.34c.26 0 .3-.17.66 0-.2-.12-.63-.33-.51-.48h.09v-.1c0-.03.07-.08.07-.13.21 0 .11-.18.11-.26-.28 0-.24-.09-.47 0v.07c0 .07 0 0 0 0v.19c-.15-.06-.27-.12-.12-.21L5.89 7c.39-.12.59-.34.83-.37-.17-.23-.13-.56-.66-.69-.07-.06.15-.08.23-.11s0 .08.12.1c-.14-.13-.07-.4-.44-.41.16-.18.34.08.27-.15h.11c.56-.5-1-.7-.27-1.25a.22.22 0 0 1-.08.06c.29-.61-.38-1.18.09-1.79.09-.17-.14-.17-.33-.26L6 2.07l-.36-.14c-.28-.22.7-.48.19-.75l-.2.06c0-.11-.15-.34.08-.34 0 0-.21 0-.11-.07h.16L5.5.57c.09-.22.63 0 .63-.34A.84.84 0 0 0 5.54 0s-.09.14-.24.16l-.1-.1A2 2 0 0 0 4 .35l.3.15-.3.07V.43c-.2.1 0 .14.12.18a.54.54 0 0 0-.24.1l.46.13c-.18 0-.37 0-.46.08.21.06.4-.12.55 0-.2.1-.38.1-.19.18a.34.34 0 0 1-.25 0c.15.07.08.22.33.25-.25.11.09.29-.35.32.11 0 .36.12.38.2-.54-.1 0 .3-.57.31.48.07.25.37.53.54h-.09c.03 0-.17.15-.25.23.39 0 .49.15.74.22-.37.16-.46 0-.82 0 .32 0 .33.21.59.14a1 1 0 0 1-.43.17c.49 0 .09.09.39.15-.23.16-.46.07-.3.22-.14.05-.31-.08-.31-.08zm1 3.79v-.08zm0 .32a.48.48 0 0 0 0-.14h.19c-.01 0-.02.1-.14.15zm1.97-.75c0 .05 0 .07-.07.08a.35.35 0 0 0 0-.09zM6.43 7.05h-.06.09zM2.88 36.5z"/><path class="cls-1" d="M4.37 12.35h.07l-.06-.03-.01.03zM1.49 38zM1.22 38.72l-.13.08a.42.42 0 0 0 .13-.08zM.93 39.26h.11H1zM2.77 30c-.05-.06-.03 0 0 0zM2.86 32.91a.72.72 0 0 1-.11-.12s-.05.08.11.12zM2.98 26.9l.01-.02-.01.02zM2.78 32.66a.08.08 0 0 0 0 .13s.03-.08 0-.13zM.07 41.68zM.09 41.72s.03.01 0 0zM.16 41.84v-.09s-.07.06 0 .09zM.42 41H.33zM.46 40.73s-.25.07-.21.17h.08c-.14-.05.28-.07.13-.17zM2 40.13l-.14.17c.11 0 .27 0 .27.09.35-.15-.28-.02-.13-.26zM2.28 39.57c0 .12.15 0 .21.06s-.09-.11-.21-.06zM3.44 35.18l.25.07c-.02-.09-.1-.02-.25-.07zM2.34 34.04l-.17.04.22.09-.05-.13zM4.23 33.95l.03.04-.06-.16.03.12zM5.55 26.41h-.32c.05.04.4.11.32 0zM5.67 23.1c.16 0 .27-.1.12-.17s-.16.13-.12.17zM6.88 13.27l.11.07-.09-.13-.02.06zM32.62 26.83c.05-.07.13-.25.06-.24l-.18.28zM32.55 26.11a1.49 1.49 0 0 0-.41.63c.2-.26.15-.13.38-.44.07 0 0 .14 0 .25.05-.07 0 .1.16-.07s0-.31-.21-.17a.63.63 0 0 1 .08-.2zM28 23.09v.05a.07.07 0 0 0 0-.05zM25.23 21.15h.07c.02 0-.06-.03-.07 0zM25 20.53s0-.02 0 0zM28 23.09V23c-.1 0 0 0 0 .09zM31.52 26.49a.21.21 0 0 0 .08-.06h-.06zM29.39 23.59l.09-.11zM30.41 24.09s-.16.22-.22.32c.07-.1.11-.13.14-.14zM31.79 25.35zM28.72 23.14v-.09zM4.65 2.19s0-.01 0 0zM5.18.34h.02l.14-.07-.16.07zM24.32 19.63s.02 0 0 0zM16.87 13.72c-.1.26-.35.11-.43.42.06-.09.41-.21.43-.42zM31.51 26.44s-.02.01 0 0zM16.44 14.14zM22.29 18.35a.68.68 0 0 0-.06.11.46.46 0 0 0 .06-.11zM23.49 19.75v-.06a.08.08 0 0 0 0 .06zM21.31 18.1v-.06s.01.01 0 .06zM20.56 17.49v.06zM6.37 4.71a1.77 1.77 0 0 1 .19-.18c-.16.12-.3.04-.19.18z"/><path class="cls-1" d="M31.59 26.35c0 .06-.06.09-.08.1a.35.35 0 0 0 .08-.1zM19.91 19.82l-.1-.13a.31.31 0 0 0 .1.13zM10.68 10.44s-.03.02 0 0zM19.41 19.42a.54.54 0 0 0 .05-.21h-.06zM6.56 4.53z"/><path class="cls-1" d="M5.43 4c.08.13.34-.13.54-.22.19.1-.18.22-.31.37.14 0 .48-.07.51 0a.33.33 0 0 1-.17.11c.31-.06.2.29.59.21l-.07.07A3.44 3.44 0 0 1 7 4.23c0 .05.26 0 .07.13H6.9 7c-.26.24-.15 0-.37.13.17.05.49 0 .47.17-.27.21-.23-.14-.4.14v-.21c-.38.4 0-.1-.44.31 0 .24.27.11.31.34.18-.07.22-.17.41-.23.46.06-.57.68-.07.61.22-.08.59-.3.49 0l-.35.17c.09.19.52-.22.44.11-.15.05-.2-.06-.22 0-.17.29.24 0 .3 0l-.27.21c.17.15.51.21.7.38-.09 0-.2.07-.25.18.31.16.35.57.37.93l.31-.08s-.08.12-.14.13.15-.11.28-.13-.08.17-.18.19c.33 0 .78.15.66.51L9 8.27c0 .21.59-.21.47.08H9.4c.12.37.57.53.41 1 .36-.22.08.4.56 0-.09.35-.21.37-.18.72 0 .08.36-.14.47-.11l-.24.2.33-.1-.24.29h.12s.06-.15.13-.2.06.41-.06.51l.41.09a.46.46 0 0 1-.26.07c.35-.06-.23.24.1.18 0-.06.15-.11.2-.15a.27.27 0 0 0 .19.38l-.18.12c.13.22.43.33.61.54 0-.14.3-.37.38-.33l-.22.24c.19-.09 0-.15.29-.23 0 .1-.23.3-.35.32L12 12a2 2 0 0 1-.22.16c.19-.1-.1.38.22.21l-.07.07c.19.21.35.23.52.4.21-.19.22-.08.44-.18.05.18 0 .47.18.6s.2-.13.37-.2c-.18.18 0 .31-.23.36a1.17 1.17 0 0 0 .62.27c.05-.1.06-.16.14-.2s0 .17-.08.25c.51 0 0 1.1.59.92h.37c.06.12-.19.08-.23.26.52-.09.31.38.69.36-.38.68.54.45.4 1l.11-.14c.17-.08 0 .13 0 .2.09-.11.06-.17.15-.21.56.25.71 1 1.05 1.52.13.18.7-.61.63-.11l-.28.2c.59 0 .67.61 1.22.62-.07 0-.13.12-.17.09-.08.24.25.22.38.07 0 .06-.1.15-.13.25s.37-.09.26.13h-.09c-.02 0 .2.2.33-.05 0 .21.32.1.31.31.26-.19.12.29.41 0-.29.34 0 .47.2.36-.11.09 0 .17-.17.29.1.07.23.07.36-.13-.16.56.61-.08.28.54a3.93 3.93 0 0 1 1.09.19c-.28.35-.3-.17-.57.21.35 0 .71-.18.88.09 0 .1-.15.13-.22.18.34 0 .44.37.8.32a.23.23 0 0 1-.12.07c.05 0 .06.12.17 0h-.07c.11-.29.53-.39.63-.51-.41.43.12.27-.42.79a.4.4 0 0 0 .21-.18c0 .06 0 .14-.15.23.22 0 .29-.2.42-.1-.06.08-.11.09-.19.18.18-.11.36-.22.43-.07s-.07.12-.11.09c.22.12.63-.19.74.12-.31.31 0 .17-.2.49h.18l.05-.18c.1.07.35-.09.37.07l-.16.08.24.07v-.19c.21-.09.25-.4.33-.22 0 0 .1.07 0 .29.12-.07.24-.14.27 0s-.24.33-.27.41c.22-.23.29.09.54-.15a1 1 0 0 0-.19.25l.18-.19c0 .1 0 .14-.1.26.12.13.21-.43.27-.14l-.09.06c.12.2.42.08.51.29-.15.35-.19 0-.3.29.27.1.72-.07.9.14v-.06c.31-.43 0 .32.28.18a.63.63 0 0 0-.15.18c.11.17.39.08.71.08l-.1.1c0 .16.21.21.28.32.1-.1.14 0 .21-.24-.08.85.79 0 .75.7 0 0-.14.06-.11.08h.3c.09-.21 0-.14.08-.32s.22-.16.27-.13c-.18.08-.18.32-.2.46 0-.07.08-.13.11-.19-.08.43.25-.4.28-.06l-.07.1c.09 0 .23-.13.28-.06-.1.25-.13.07-.24.26.1 0 .43-.34.39-.06-.08 0-.13 0-.21.06-.06.33 0 .26 0 .34l.1.21v-.1c.45-.55.3 0 .68-.29-.36.3-.14.21-.3.47v.28c.19-.17 0 .24.31 0 0 .09.08.05-.05.26.14 0 .05-.16.12-.27.3-.21.18.54.62.25.28-.07.46-.35.71-.41 0 .17-.21.29-.21.29 0 .18.12.19.26.13a.5.5 0 0 0-.09.25c.09 0 .21-.29.24-.12a2.54 2.54 0 0 1-.25.32c.13 0 .29-.16.42-.19-.05.16-.17.21-.25.29a.55.55 0 0 0 .48-.24v-.12s-.08.22-.13.25-.09-.15 0-.24h.09c.18-.55-.3 0-.41-.14l.24-.35-.28.24c0-.11.1-.33.19-.35 0-.23-.15.09-.12-.15a.09.09 0 0 1 0-.06l-.14.07c.06-.07.12-.27.14-.19-.05-.29-.4.15-.32-.16-.29 0-.16.26-.49.5l.23-.73-.16.26s-.05-.06 0-.17c-.18.14 0 .13-.19.28 0-.3-.36 0-.16-.49-.15.18 0 .22-.17.3.21-.48-.18 0-.16-.26s.18 0 .2-.31c-.27.37-.15-.19-.27-.16-.18.32-.25 0-.45.07.07-.1-.17-.32-.23-.5v-.05c-.2.31-.3.17-.44.19a.71.71 0 0 1 .27-.31h-.09a.3.3 0 0 1-.22.13l.16-.23c-.13-.05-.41.15-.47-.1-.14.22-.23.69-.48.74.06-.12.17-.33.24-.36s-.11.07-.11 0l.18-.16c0-.13-.13.15-.18.09s0-.15.11-.28 0 .1.07 0a.45.45 0 0 1 0-.36c-.05.1-.13.23-.19.22s.08-.23.06-.36c-.1.1-.1-.07-.25.19 0 0 0-.14.06-.22-.13.08-.31-.14-.4.17-.35.13-.34-.39-.6-.41l.05-.08c-.18 0-.3-.1-.5 0 0 0 0-.2.09-.29-.13 0-.2.1-.25-.12.18-.09 0-.15.16 0-.07-.15 0-.3-.28-.15.18-.19.08-.33 0-.3v.21a.25.25 0 0 1-.17-.12l.21-.26c0-.49-.8.3-.61-.38-.19.15 0 .22-.16.41-.09-.11.06-.58 0-.61 0-.25-.41.32-.49.11 0 .11-.2.39-.38.4s.14-.5.26-.54 0 0 0 .08a.17.17 0 0 0 .16-.16l-.08.09c0-.14-.14-.22 0-.36-.15 0-.14.14-.12.23 0-.23-.22-.14-.29-.34 0 .07-.07.2-.09.18-.12-.27-.22.12-.39.07 0-.21.27-.34 0-.31 0-.16.16-.27.25-.33-.26.1-.15-.29-.2-.38h.12a.14.14 0 0 1-.14 0l-.1.22v-.17c-.13.1-.2.35-.4.46 0-.14-.24 0-.07-.28.1.2.16-.27.33-.21 0 0-.08 0-.1-.07a.11.11 0 0 1 .06-.06c0-.34-.28.24-.44.12.12-.13.16-.3.11-.29s-.14.26-.28.33c0-.19-.17 0-.22 0v.1c-.13.13-.16.07-.27.07.07-.12.12 0 .13-.1-.27.19 0-.39-.23-.3 0-.13.19-.27.19-.37-.26.1 0-.3-.23-.24-.1.22-.06.18-.29.3h.31l-.34.17c.06.05.23 0 .24 0-.18.11-.14.06-.23.25.12-.36-.3 0-.26-.24l.36-.47c0-.33-.45 0-.56-.24v.13c-.17.17-.14-.07-.27 0a1 1 0 0 0 .18-.36c-.09.12-.14-.12-.4.18l.07-.27c-.1-.21-.53.3-.64.13.18-.13.2-.3.39-.34-.05 0-.07-.11-.16 0 0-.12-.31.1-.24-.08-.08.05-.21.21-.26.15a.35.35 0 0 1 .06-.08c-.06.08-.17 0-.26.24.23-.61-.46-.33-.27-.85a1.6 1.6 0 0 1-.43-.17s.06-.08.07 0c0-.26-.45.37-.47.08.12-.31.19-.06.22-.2.4-.52-.25-.09-.11-.47h.05c.06-.23-.35 0-.46-.12a.38.38 0 0 0 .06-.07.88.88 0 0 1-.73.07c.21-.16.14-.05.29-.27-.08 0-.26.33-.41.28a1.41 1.41 0 0 1 .23-.52l.11.08c.18-.32-.14-.11-.16-.21l.11-.11c-.19-.1-.45.19-.61 0l-.06.1c-.35.21.07-.23-.22-.1l.24-.32a2.13 2.13 0 0 1-.63 0 2.19 2.19 0 0 1 .69-.21.31.31 0 0 0-.39 0c.05 0 .15-.05.13 0-.28.16-.49.19-.6.07.54-.54-.19-.42.14-.94-.4 0-.32-.48-.59-.68-.33.51-.08-.06-.49.4-.08 0-.1-.05-.08-.09l.08-.43c.08-.17.15 0 .24-.15-.09-.15.13-.23.16-.43-.14.17-.26.18-.27.06l-.1.3c-.4.07.21-.51-.18-.44l.19-.08c-.17 0-.32-.32-.75-.06 0-.07.13-.2.2-.2-.15-.26-.83-.11-.77-.48l.12-.09c-.07 0-.27.13-.21 0s.12-.09.11-.11-.29.08-.28 0l.16-.07c-.05-.34-.6 0-.84-.14a.68.68 0 0 0 .25-.69c-.18-.28-.64-.18-1-.29.23-.46-.28-.62-.28-1a.5.5 0 0 1-.33.21c0-.11-.36 0-.05-.21.27-.3.08-.34 0-.44l-.41.33c.39-.73-.72-.44-.3-1h-.35l.22-.18a.74.74 0 0 0-.13-.7l.17-.11c-.07-.12-.75.37-.85.28l.31-.29c-.17-.18 0-.61-.47-.57.05 0 .15-.1.19-.08s0-.53-.48-.14c.3-.23-.12-.22-.34-.23l.23-.15c-.35.12-.43.18-.61.11 0-.05.16-.16.13-.08 0-.19-.27.08-.24-.13l.18-.06c-.06-.11-.13 0-.34 0s-.09-.24.1-.4c-.13.08-.34.14-.33 0a.32.32 0 0 1 .17-.08c0-.28-.45-.07-.31-.35a.48.48 0 0 0 .12-.12c.09.14.16.26.13.27.21-.15.17-.29.52-.41-.22 0-.67.12-.65-.06l.06-.07h-.08c-.08 0 0-.1 0-.14.16-.14 0-.19 0-.26-.23.17-.24.07-.38.27h.07l.11.13c-.15 0-.28.06-.19-.09l-.43.18c.27-.3.34-.57.52-.73-.25-.08-.37-.34-.88-.15-.09 0 .09-.14.14-.21s.08 0 .15 0c-.18 0-.25-.26-.57-.08.05-.22.33-.12.16-.26h.11c.27-.66-1.14 0-.75-.83a.23.23 0 0 1-.08.11c0-.61-.85-.72-.65-1.44 0-.18-.19-.07-.39-.05l.24-.18h-.37C6 1.6 6.76 1 6.21 1l-.16.13C6 1 5.79.9 6 .8c0 0-.2.08-.13 0L6 .71 5.66.64c0-.22.56-.29.45-.53a.93.93 0 0 0-.62.06s0 .14-.17.22L5.2.35c-.41.21-.87.38-1 .74h.3l-.17.16-.08-.11c-.15.17 0 .12.18.1a.56.56 0 0 0-.18.18l.47-.08c-.15.11-.35.12-.38.26.22 0 .32-.26.5-.23-.14.17-.31.24-.1.23a.36.36 0 0 1-.24.09c.17 0 .16.15.4.06-.18.2.2.2-.19.42.1 0 .37-.05.42 0-.52.15.11.25-.39.51.46-.16.36.2.68.22h-.1c.01 0-.09.21-.13.31.34-.19.5-.11.75-.17-.26.3-.43.18-.72.4.27-.17.38 0 .59-.16a1 1 0 0 1-.3.34c.42-.25.12 0 .41-.07-.13.24-.37.27-.16.32a.36.36 0 0 1-.33.13zm2.68 2.47L8 6.42zm.17.24a.4.4 0 0 0-.06-.11c.07-.07.16-.11.17-.09s-.07.12-.11.2zm1.23-1.64c.06 0 0 .06 0 .1h-.07z"/><path class="cls-1" d="M9.17 5.22v.06h.08zM28 23.15zM10.36 10.27l.06-.04-.07.02.01.02zM28.91 24.78a.2.2 0 0 0 0 .07.26.26 0 0 0 0-.07zM29.49 25.17v.14a.4.4 0 0 0 0-.14zM29.9 25.56l.07-.1zM22.42 21.29c-.1.02-.06.02 0 0zM24.9 22.2l-.14.07s.05.07.14-.07zM19.92 19.83l-.01-.01.01.01z"/><path class="cls-1" d="M24.66 22.2c0 .07 0 .08.1.07s-.05-.08-.1-.07zM31.94 26.73zM32 26.71s0-.03 0 0zM32.1 26.65h-.09s.05.07.09 0zM31.35 26.29l-.05.09zM31.14 26.22s0 .25.11.23v-.07c-.05.12.02-.29-.11-.16zM30.91 24.7l.12.15c0-.11.05-.26.14-.25-.05-.38-.07.25-.26.1zM30.5 24.3c.11 0 .07-.14.11-.19s-.13.07-.11.19zM27 22.32l.14-.21c-.04-.01-.01.08-.14.21zM25.68 23.02l-.02.17.16-.17h-.14zM26.29 21.24l.04-.01-.15.01h.11zM20.85 17.41l-.18.26c.07-.01.33-.28.18-.26zM18.45 15.78c.08-.14.09-.27-.05-.19.03.07 0 .2.05.19zM12.79 9.25l.12-.02-.13-.03.01.05zM65.93 56.89c0-.09 0-.28-.1-.25l-.1.33zM65.08 56.25a.78.78 0 0 0-.25.74c.16-.31.19-.18.36-.55.13 0 .22.11.2.24 0-.08.2.08.27-.13a.34.34 0 0 0-.59-.08c-.07-.08 0-.16.01-.22zM52.91 54.12l.07.06a.14.14 0 0 0-.07-.06zM45.68 51.73a.09.09 0 0 0 .1 0c-.05-.04-.1-.03-.1 0zM44.6 50.93l.06.05s-.04-.07-.06-.05zM52.91 54.12l-.17-.12c-.04.08.08.08.17.12zM63.33 57a.28.28 0 0 0 .12-.08h-.11zM56.25 54.54h.06l.07-.12zM58.8 54.89c-.06 0-.11.26-.15.38 0-.11.1-.16.15-.17a.8.8 0 0 0 0-.21zM62.81 55.8h.08zM54.46 54.13a.35.35 0 0 0 0-.1.25.25 0 0 0 0 .1zM5.25 5.94s-.01-.02 0 0zM6.16 2.72l.02.04.15-.01-.17-.03zM42.56 49.69c.08.01.04 0 0 0zM24.67 37.8c0 .36-.51-.06-.44.41.05-.11.54-.08.44-.41zM63.26 56.94h-.11a.18.18 0 0 0 .11 0zM24.23 38.2zM37.63 47.43a.39.39 0 0 0 0 .14.26.26 0 0 0 0-.14zM41.07 49.62l-.07-.08a.23.23 0 0 0 .07.08zM35.61 46.72s0-.09-.12-.09.09.02.12.09zM33.75 45.55a.53.53 0 0 0 0 .07h.07zM7 12.63a.94.94 0 0 1 .21-.17c-.21.09-.36-.21-.21.17z"/><path class="cls-1" d="M63.33 56.82c0 .07 0 .1-.07.12h.08a.16.16 0 0 0-.01-.12zM34.39 48.57l-.29-.22a1.45 1.45 0 0 0 .29.22zM13.61 27.46l-.07-.05a.07.07 0 0 0 .07.05zM33.17 47.81a.55.55 0 0 0-.07-.27h-.07zM7.2 12.46z"/><path class="cls-1" d="M5.92 10.34c.07.34.39.07.61.09.2.37-.22.25-.37.44.15.23.54.33.58.51-.05 0-.07.07-.15 0 .36.18.24.77.68 1a.24.24 0 0 1-.08.07 1.54 1.54 0 0 1 .47-.19c0 .14.3.2.09.33 0-.09-.11-.07-.2-.09l.15.12c-.29.24-.18-.18-.42-.1.2.27.57.53.55.79-.31.15-.27-.5-.47-.11v-.39c-.43.43 0-.23-.5.19 0 .5.31.48.37 1 .22 0 .25-.12.47-.07.55.55-.63.79 0 1.13.26.05.68 0 .58.38h-.4c.12.46.61.07.53.63-.17 0-.24-.31-.26-.23-.18.41.28.14.36.38l-.3.17c.23.46.67.89.93 1.38-.11 0-.24 0-.29.12A5.12 5.12 0 0 1 9.44 20l.37.12c0 .06-.08.16-.15.12 0 .29.18-.06.33 0s-.07.25-.19.2c.42.33 1 1 1 1.57h-.12c.06.4.73.12.65.56h-.08c.26.8.9 1.5.83 2.26.43-.1.24.81.78.57 0 .56-.18.49 0 1.18.07.17.46 0 .62.2l-.26.16.43.09-.23.33.18.14a.24.24 0 0 1 .11-.26.71.71 0 0 1 .1.88l.62.52c-.11.05-.22 0-.34-.08.48.18-.23.24.21.4 0-.08.17-.08.23-.1-.05.26.19.61.43.83l-.21.07c.28.51.76.94 1.11 1.48 0-.25.28-.41.42-.28l-.22.25c.23 0 0-.23.33-.17.11.21-.21.34-.38.29l.27.17c-.07.07-.15 0-.26.1.24 0 0 .6.42.53l-.07.07c.38.52.64.69 1 1.1.23-.16.3 0 .57 0a4.34 4.34 0 0 0 .57 1.16c.31.16.24-.08.47-.07-.18.18.13.52-.17.45a4.21 4.21 0 0 0 1.1.91c0-.12 0-.22.1-.24a.23.23 0 0 1 0 .35c.81.33.65 1.86 1.47 2L22 38c.18.24-.26 0-.22.27.8.21.73.84 1.34 1.05-.22.87 1.19 1.05 1.3 1.82l.1-.15c.23 0 .07.2.13.31.08-.11 0-.23.12-.24a20.54 20.54 0 0 1 2.84 3c.37.34.79-.55 1 .17l-.34.15a3.87 3.87 0 0 1 1.32.79 4.26 4.26 0 0 0 1.31.76c-.09 0-.15.11-.23.05 0 .32.62.45.73.29.11.11-.07.17-.05.3s.6.05.56.3h-.13c.18 0 .52.37.56.06.24.31.66.28.82.57.33-.16.45.47.73.13-.26.37.35.66.66.59-.14.08.1.22-.07.34.23.13.49.18.56 0 .15.71 1.06.11 1 .85.79.2 1.53.36 2.2.6-.23.39-.71-.32-.91.11.69.15 1.2 0 1.74.39.12.13-.17.13-.26.17.67.15 1.15.6 1.79.63 0 0-.1.05-.17.06.11 0 .22.18.29 0h-.13c0-.35.68-.37.76-.5-.42.45.47.38-.12.93a.27.27 0 0 0 .25-.18c.09.08.09.17-.08.27.43.08.38-.19.73 0 0 .09-.13.1-.21.19.26-.1.51-.21.77 0 0 0 0 .13-.12.1.52.18 1.06-.12 1.55.29-.32.33.14.21 0 .57h.34l-.06-.21c.27.1.6-.06.78.13l-.25.07.53.12-.23-.24c.34-.08.14-.45.45-.23-.08 0 .26.1.33.36.17-.06.35-.13.51 0 0 .13-.18.37-.17.46.23-.25.65.15.93-.12a.48.48 0 0 0-.14.29l.19-.21c.1.12.11.16 0 .3.36.16 0-.49.41-.15l-.12.06c.42.24.92.12 1.29.37 0 .4-.39 0-.34.32a11.87 11.87 0 0 1 1.92.19l-.1-.07c.22-.49.36.37.72.21-.08 0-.17.26-.14.21a3.46 3.46 0 0 0 1.5.09l-.11.12a4.49 4.49 0 0 0 .85.32c.11-.12.25-.06.2-.27.59.84 1.59-.16 2.17.63-.09 0-.22.08-.16.09h.63c0-.24-.05-.15-.15-.35a.5.5 0 0 1 .44-.17c-.3.1-.06.37 0 .51v-.22c.24.46.13-.45.51-.1v.12c.17 0 .34-.17.51-.1 0 .28-.19.09-.24.31.25 0 .56-.41.74-.12-.12.06-.26 0-.38.09.19.35.23.27.41.35l.4.19-.09-.1c.4-.65.64 0 1.12-.44-.45.38-.1.24-.17.54.1.1.25.21.19.29.23-.22.31.23.63-.09 0 .1.21 0 .14.27.26 0 0-.18 0-.3.43-.27.89.49 1.5.09.51-.15.62-.47 1.08-.59.14.17-.15.34-.15.34a.62.62 0 0 0 .66.06c-.05.08 0 .16.06.27s.15-.35.38-.2a1.46 1.46 0 0 1-.21.38c.23-.08.45-.25.69-.33.05.17-.15.25-.24.36.26-.07.68-.13.76-.39l-.16-.1c.09 0 0 .23 0 .28-.23.2-.31-.11-.32-.2l.16-.06c-.14-.58-.65.07-1 0l.16-.41-.35.33c-.06-.11-.1-.35.07-.4-.22-.22-.21.13-.4-.11v-.07l-.23.1c.05-.08 0-.3.12-.22-.39-.27-.68.26-.8-.07-.57.09-.08.3-.54.62l-.21-.77-.08.3c-.06 0-.17 0-.14-.17-.24.19 0 .14-.12.32-.25-.29-.79 0-.79-.45-.13.22.25.21-.07.33 0-.53-.35 0-.58-.23.11-.26.33-.08.11-.36-.21.43-.48-.16-.7-.1-.06.36-.49.09-.86.16 0-.11-.64-.31-.95-.5v-.06c-.12.35-.46.22-.72.25a.43.43 0 0 1 .26-.37h-.23a.38.38 0 0 1-.32.17l.11-.26c-.31 0-.69.21-1 0-.07.25.18.77-.28.84 0-.14 0-.37.16-.41 0 0-.15.08-.21 0l.21-.19c-.16-.14-.13.17-.27.12 0-.19-.08-.16 0-.31s.11.11.18 0a.65.65 0 0 1-.36-.39c0 .11-.05.26-.18.26-.31-.05-.06-.26-.21-.39-.1.12-.27-.06-.34.22-.09 0-.08-.16-.09-.24-.19.09-.75-.13-.64.22-.6.18-1-.43-1.59-.44v-.1c-.34 0-.7-.12-1 0a.26.26 0 0 1-.09-.33c-.25 0-.31.11-.6-.15.28-.09 0-.17.27-.05-.28-.17-.3-.35-.7-.19.18-.21-.13-.38-.3-.35l.16.24a1.23 1.23 0 0 1-.44-.15l.18-.29c-.48-.58-1.32.31-1.57-.49-.24.17.28.27 0 .48-.27-.14-.4-.7-.48-.73-.32-.31-.52.33-.87.06a.39.39 0 0 1-.39.44c-.27-.14-.17-.59 0-.62s.09.06.07.1.24 0 .17-.17l-.08.1c-.1-.16-.48-.29-.32-.44-.25 0-.16.15 0 .26-.29-.29-.56-.2-.87-.46v.21c-.47-.36-.32.11-.7 0-.14-.25.24-.37-.18-.38-.17-.2.07-.31.2-.36-.41.08-.55-.39-.72-.51h.21a.57.57 0 0 1-.29-.06v.26c-.03-.11-.1-.11-.1-.19-.17.1-.08.4-.37.5-.09-.17-.46-.05-.38-.37.38.29.08-.3.46-.2a.31.31 0 0 1-.25-.11s0-.05.07-.06c-.28-.44-.33.24-.74 0 .13-.14 0-.35 0-.35.16.08 0 .31-.25.36-.21-.25-.33 0-.46-.12l.13.13c-.13.14-.25.05-.46 0 0-.13.21 0 .17-.09-.34.19-.33-.51-.7-.45-.08-.17.13-.31.05-.43-.42.06-.23-.39-.65-.39 0 .26 0 .22-.31.31l.62.13-.5.13c.16.09.41 0 .49.13-.25.09-.21 0-.22.26-.06-.44-.54 0-.69-.4l.28-.52C39 48 38.45 48.35 38 48l.11.18c-.18.17-.33-.13-.54-.14.11-.17 0-.28 0-.43-.06.13-.35-.22-.59.1l-.09-.35c-.34-.32-.74.22-1.09-.06.22-.12.12-.34.46-.32-.13-.08-.22-.17-.29-.06 0-.15-.49 0-.51-.21-.1 0-.22.21-.36.11a.16.16 0 0 1 .05-.08c-.05.09-.29 0-.28.24-.06-.77-1.11-.66-1.16-1.32a7.35 7.35 0 0 1-.93-.42s.06-.08.09 0c-.23-.38-.52.33-.79-.11 0-.4.3 0 .25-.18.32-.57-.51-.25-.54-.74h.08c-.06-.32-.61-.13-.9-.39a.17.17 0 0 0 .06-.08 1.89 1.89 0 0 1-1.23-.26c.25-.13.22 0 .32-.25-.15-.07-.21.36-.52.21 0-.18-.12-.42 0-.66l.26.18c.09-.38-.33-.24-.42-.39l.11-.11c-.41-.25-.66 0-1.05-.29v.12c-.47.13 0-.32-.45-.28l.19-.36a4.71 4.71 0 0 1-1-.29 2.86 2.86 0 0 1 1 .06c-.14-.12-.5-.38-.69-.3.08 0 .22 0 .23.1a1 1 0 0 1-1-.24c.55-.53-.61-.77-.4-1.4-.67-.24-.86-1-1.44-1.45-.22.61-.17-.14-.57.33-.15-.1-.19-.15-.17-.19l-.12-.64c0-.22.21 0 .3-.08-.23-.31.07-.3 0-.59-.12.19-.32.12-.41-.09v.42c-.61-.16 0-.69-.56-.85h.26c-.28-.12-.71-.73-1.24-.61 0-.08.1-.25.21-.18-.38-.54-1.38-.76-1.49-1.35l.15-.06c-.12-.06-.36 0-.34-.2.05 0 .15-.06.12-.11s-.41-.09-.45-.27h.22c-.26-.63-.94-.51-1.37-.88.35-.27.13-.75 0-1h.05c-.4-.64-1.05-.81-1.61-1.27.12-.62-.68-1.33-.85-2.05 0 .13-.29.18-.4.1s-.51-.21-.16-.41v.05c.26-.32 0-.53-.14-.77l-.47.25c.29-1-1.19-1.4-.79-2.07-.2-.07-.31-.25-.5-.33L15 25a3.68 3.68 0 0 0-.57-1.12h.23c-.14-.29-.91 0-1.07-.21l.33-.28c-.29-.48-.19-1.16-.79-1.48.06 0 .18-.06.23 0-.11-.24-.2-1-.67-.7.34-.17-.23-.53-.5-.74l.27-.08c-.43-.08-.52 0-.75-.34 0-.09.17-.16.15 0 0-.32-.33-.09-.33-.47h.21c-.1-.27-.18-.21-.43-.28a.46.46 0 0 1 .05-.67c-.16 0-.41 0-.41-.23a.19.19 0 0 1 .2 0c0-.52-.57-.55-.44-1a.25.25 0 0 0 .13-.11A3 3 0 0 1 11 18c.24-.1.17-.4.58-.31-.27-.16-.82-.4-.81-.72l.07-.07a.2.2 0 0 0-.11-.16.65.65 0 0 0 0-.26c.19-.11 0-.37-.07-.52-.26.11-.29-.09-.44.16l.09.11c.09.11 0 0 .05.05l.16.35c-.18-.06-.34-.14-.25-.36h-.5c.28-.34.34-.79.55-.93-.3-.39-.46-1-1.06-1.13-.11-.11.09-.2.16-.27s.1.15.18.16c-.22-.21-.31-.74-.68-.69 0-.37.38.08.18-.35h.13c.31-1-1.32-1.17-.89-2.36 0 .08 0 .12-.09.15 0-1.21-.91-2.26-.62-3.5 0-.34-.2-.33-.41-.49l.28-.13-.41-.23c-.34-.43.55-1 0-1.47l-.19.11c0-.22-.22-.67 0-.67 0 0-.22 0-.13-.14h.16l-.35-.5c.05-.43.63 0 .57-.63-.09-.21-.55-.58-.64-.48a.27.27 0 0 1-.22.28l-.11-.2c-.47 0-1-.08-1.21.48l.34.32-.21.15-.1-.34c-.18.2 0 .29.16.39A.38.38 0 0 0 5 4l.49.29c-.17.07-.38-.11-.44.15.23.14.38-.22.55 0-.18.2-.36.18-.15.36a.21.21 0 0 1-.26-.06c.17.16.13.47.39.52-.24.23.17.6-.27.65a1 1 0 0 1 .45.42c-.58-.2.09.62-.48.65.51.13.37.77.7 1.11 0 0-.12 0-.11-.08 0 .23-.13.33-.18.49.39-.06.56.27.84.39-.3.35-.49-.06-.82.11.31-.08.42.4.66.24-.18.26-.07.2-.36.39.48-.08.13.17.46.27-.16.36-.43.19-.2.48-.11.21-.35-.04-.35-.04zm3.28 7.37l-.07-.15zm.25.62a2 2 0 0 0-.1-.27c.08-.06.18-.07.2 0s-.06.15-.1.27zm1.3-2c.07.08 0 .13 0 .17l-.1-.16h.11z"/><path class="cls-1" d="M10.34 16.28v.08h.1zM53 54.19zM13.1 26.89l.06-.04-.08-.02.02.06zM56.38 55.86a.14.14 0 0 0 0 .08.18.18 0 0 0 0-.08zM57.93 56.18l.21.13a.94.94 0 0 0-.21-.13zM59.13 56.48a.6.6 0 0 0 0-.12zM40.35 51.36c-.18-.01-.1 0 0 0zM46 53a1 1 0 0 1-.22.06c.05.02.12.05.22-.06zM34.42 48.59h.01l-.04-.02.03.02zM45.49 52.93a.27.27 0 0 0 .25.1.4.4 0 0 0-.25-.1zM64.42 57h.06zM64.49 57h.07-.07zM64.7 56.92l-.14.07s.1.01.14-.07zM62.8 56.84v.1a.27.27 0 0 0 0-.1zM62.31 56.83c.12 0 .28.24.45.19v-.08c-.07.15-.33-.27-.45-.11zM60.39 55.4l.39.12c-.06-.11-.14-.27 0-.28-.42-.36.14.26-.39.16zM59.17 55.08c.22 0 0-.16 0-.22-.11.09-.17.14 0 .22zM50.31 53.26l.09-.26c-.17 0-.03.11-.09.26zM48.25 54.01l.11.2.15-.2h-.26zM47.83 51.97l.08-.02-.29.01.21.01zM34.21 45.55l-.13.29c.13.01.34-.27.13-.29zM28.72 42c0-.17 0-.36-.22-.31.09.11.13.31.22.31zM16.18 27.07l.15.06-.2-.17.05.11z"/></g></g></svg>