<svg viewBox="0 0 373 373" xmlns="http://www.w3.org/2000/svg" xmlns:xlink="http://www.w3.org/1999/xlink"><clipPath id="a"><path d="m320 186.5c0 55.75-36 106.91-88.48 125.72s-112.59 2.13-148-40.81-40.31-105.47-11.67-153.35c28.86-48.24 86.46-73.63 141.55-62.35 61.34 12.56 106.6 68.24 106.6 130.79z"/></clipPath><g clip-path="url(#a)"><path d="m0 0h373v373h-373z" fill="#f2eff7"/></g><path d="m201.28 138c-.44-.84 4.33-1.29 5.18-1.29s-2.46 5.76-5.18 1.29zm-27.28-38.87c2.8.22.87 4.77-1.06 6.71-.5.63 3.32 1.08 3.32 1.08.07.22-4.57 1.34-3.85 2.17 1.66 2.35 7.33-2 9-2.23l1.3-1.08c0 .61-4.85-9.57-5.23-9.94l1.11-1.29c-2.59-3.79-4.59 4.58-4.59 4.58zm164.74 87.4c0 63.09-40.46 121.05-99.72 142.75-59.93 21.95-128.94 3.09-169.52-46.08s-45.85-120.89-12.68-175.48c33-54.38 98.25-82.85 160.6-70.08 69.82 14.29 121.34 77.68 121.34 148.89zm-105.24-68c-.25-6.08-9.61 4.16-6.93 7.94 3.11 4.39 7.7-.58 10.73-.78 2.19-.14 12.82 4.07 12.23-1.74.15 1.52-14.82-9.63-8.26-10.43-1.66.19-7.75 8.61-7.75 4.98zm79.74 68c0-7.74.78-30.47-6.26-36.24-5.86-4.79-13.22 2.24-19.83 2.43-1.57 0-1.93-1.92-3.23-2.06-1-.11-2.81 1.7-3.72 1.38-2.66-1-6.69-6.06-9-5.89-5.33.39 5.62 12.53 8.66 12.84s5.65-4.09 9.29-2.28c4.24 2.11 3.06 7.89 1.73 11.6-1.68 4.68-13.63 21.08-19.76 20.7-3.87-.24-8.81-11.43-10.95-14.77s-14.84-16.05-14.65-19.39l-.22 2.1c-1.24.94-3.75-3.46-4-4.07 0 5.56 10.56 18.22 13.4 23.23 2.7 4.75 10.26 15.76 16 17.17 4.17 1 10.49-6.89 13.64-4.65 2.86 2-1.68 9.95-2.58 11.9-5.15 11.14-15.5 21-19.59 32.4-2.55 7.09 2.84 14.27.55 21.14-1.72 5.14-6.13 5.75-9.33 9.61-2.64 3.19-3.47 7.3-6 10.6-6.74 8.73-24.28 26.36-36.52 17.16-4.27-3.21-3.54-11-5.57-15.16-1.51-3.06-4.14-5.3-5.6-8.26-3.87-7.82 3.6-12.32 1.83-20.5-1.36-6.29-7.17-8.33-9.14-13.52-1.41-3.71 2.32-7.45.94-10.79-2.24-5.39-4.12-2.15-8.54-3.73-3-1.07-2.81-4.46-6.42-5.13-3.88-.72-8.45 3.58-12.5 3.85-4.6.3-11.56-1.24-15.94-3-8.68-3.44-13.66-11.32-15.14-20.36-1.27-7.72-.75-21.08 2.35-27.84 2.25-4.92 6.89-8.26 11.13-11 4.89-3.2 5.76-5.93 9.78-10 6.54-6.57 19.26-6.47 28.18-7.47 2.31-.26 8.58-1.69 10.51.57.69.81 1.91 7.57-.24 7.24 5.76.31 12.58 10.22 18.5 7.33 7.12-3.47-.8-5.48 8.68-4.62 5.13.47 13.45 4 18.34.86 2.7-1.74 6.11-11.65 2.09-13.66-.07-.07-12.2 2.38-14 1.56 1.47.7-8.18-4.48-2.76-8.45-.32.23-7.94 3.24-7.4 3.15-4.3.7-1.78 2.36-6.66-2.08-.67-.61-12.63-12.05-12.83-9-.21 3.28 8.25 9.06 10.52 11.32-.49.32-2.62-3.62-2.62-.75-.33.84.88 3.72-.51 4.9 3.48-3-13.21-16.37-20.11-13.2-4.24 2-7.42 6.41-11.14 9.38-1.11.89-10.65 5.84-10.73 6-.66 1.71-4.93-5.43-5.12-6.33-.84-4 1.57-8.14 3.9-9.25 2.9-1.38 7.56 2.55 10.61-.21s2.11-8.41-2.45-8.89c4.84.57 9.06-4.83 12.63-7 2.32-1.38 7-2.33 8.64-4.06s1.19-4.92 2.5-6.93c1.66.67-.89 4.76 1.1 6.42 0-.08 8.41.34 9.74-.2 4.76-1.94 2.35-4.56 6.27-6.31-.28.11 4.31-7.84 5.09-5.23-.39-1.9-7.17 1.72-9.17-1.61-.84-1.4 3.42-11.41-1.73-6.47-2.78 2.66-1.1 14.28-3.06 15.79-2.93 2.24-5.24-1.47-8-2.6-3.22-1.29-8-.33-7.08-5.58.26-1.74 11.26-12.12 13.32-13.69 3.91-3 11.09-3.66 15.4-.52 6 4.37.43.74 2.42 2.48.31.27-2.45 2.76.67 3.72 3.6 1.11 7.51-6.38 9.37-8.72 3.11-3.9 6.49-1.25.53-5.93-6.84-5.37-27.61-9-35.91-7.69-10.53 1.61-17 13.31-29 14.41-5 .46-7.82-.49-12.87 1.55-3.67 1.49-8.67 6.34-12.67 6.47-.84.05 1.44-8.21 4.53-8.62 1.52-.23 15.74-9.16 15.31-10.88-.58-2.29-31 9.1-33.6 12.21-.8 1 1 1.48.87 1.66a33.7 33.7 0 0 0 -2.06 3.6c-.94 2.45-3.84 8.23-6.16 9.35-3 1.45-5.6-1.18-8.32-.25-3.11 1.07-5.86 5-9 6.78-9 5.26-13.74 9-20.18 18.37a126.46 126.46 0 0 0 -17.55 37.42c-1.63 5.83-2.83 10.22-.76 14.94.53 1.21 2.68 2.19 3.48 3.83.91 1.87.41 4.68.86 6.69 2.25 10.15 17.33 21.21 14 32.51 1.86-3.06 21.67 19.28 21.47 24.3-.18 4.57-3.77 5.1-4.92 8.39-1.06 3 .15 5.13.61 8.27.27 1.87 1.8 5.55.88 7.52-1.21 2.59-4.38 1-5.46 2.71-8.31 13.25 16.44 27.34 26.21 33.27a126.42 126.42 0 0 0 56.58 17.95c72.21 5.04 135.47-53.8 135.47-126.19zm-145.71-80.53c3.93-1.73 6.52-7.83 1.44-4.52-1.02.68-3.92 5.62-1.44 4.52z" fill="#291f4f"/></svg>