<svg height="77" viewBox="0 0 151 77" width="151" xmlns="http://www.w3.org/2000/svg"><g fill="#291f4f" fill-rule="evenodd"><path d="m53.87822 4.18867971c-2.4733087.83492876-4.2288265 1.85201442-4.2133457 4.06111827.0067083.95413059.53357 1.61051463 1.2967713 1.90155282zm-15.3543532 22.30415699c-.0030726-.4422336.2988021-.818416.6899492-.8844672 3.8670928-.6501918 5.2490083-2.0935142 6.450315-4.5534063l4.6112011-9.4845431c-.1527435-.0903044-.32716-.1542915-.4804195-.2683331-.9613549-.5604034-1.5124698-1.60845052-1.5207262-2.8185296-.0273493-3.95378504 3.748407-5.28719414 6.5055296-6.0994178.8813711-1.52227432 1.7028832-2.17298209 2.8329783-2.36287936.695086-.11713772 1.4154571.25078824 1.4222107 1.15847656.0097593 1.41855326-1.5749541 1.91806565-3.4202602 2.46092415-.1073333.22756711-.2358235.4587464-.3643138.73636795l-3.195744 6.5917058c-.0428301.0774038-.0645032.1506794-.1290063.2316953l-5.0400181 10.3937795c-1.6512806 3.3515836-3.7293141 4.8413484-7.6619421 5.5028927-.3911471.0655352-.69715-.2089902-.6997537-.6042655z"/><path d="m54.8157862 20.4474983c-.3297401-.5495668-.2915543-1.3246367.0727595-2.1079629l1.4366142-2.9423757c.3653458-.7368839.3622497-1.1786015.2740094-1.3499219-.1099134-.145003-.327676-.1775126-.6316149-.1264261-1.9990816.3359324-4.1658714 4.7051177-5.7531649 7.9287271l.0005161.0469583c-.2151826.3390285-.6269707.5475027-.9546467.3926951-.3266439-.1310704-.4608105-.574336-.267301-.9561946l3.9248876-8.0407046c.1929934-.3813426.6269706-.5712399.9541306-.4169484.1527435.0675993.2626568.2120864.307035.367926.5836245-.4473939 1.1698291-.7327558 1.7777068-.8349288.8256403-.1388108 1.4799602.101141 1.8107324.6971501.2853619.4412015.4871278 1.3158642-.2198267 2.8319462l-1.4588033 2.9454718c-.1284902.2781376-.1708043.4943522-.082564.6192303.0655352.1057851.3054869.2280831.7838423.1475832.8689864-.1455191 1.598646-1.596066 2.4346068-3.3428112.1929935-.3818587.6052976-.5671117.9546467-.4159163.3266439.1542915.4608104.5733039.267301.9551626-.9866402 2.0754533-1.9732803 4.034285-3.646234 4.3155187-.9123326.1537755-1.6321877-.1212659-1.9846329-.7141789"/><path d="m63.7923024 16.4468066c.90098-1.8040241.8246083-3.421247.1914454-3.7334423-.1305544-.0717275-.2616248-.0959807-.4355253-.0665672-.9990247.1677081-2.0119822 1.5955499-2.4619562 2.4862093-.923169 1.8076363-.8467973 3.4016381-.1919613 3.7107372.1305543.0712115.2611087.0954647.4350092.0660512.6300668-.1290063 1.6683094-.9319415 2.4629882-2.4629882zm1.7152678-.4040477c-.5366662 1.044435-.5965251 1.7766747-.4210766 2.049652.0227051.0423141.0887564.1713204.4365573.1130096.8684704-.1460352 1.575941-1.6388961 2.4340909-3.3665484.1929934-.3808266.6052975-.5671117.9324575-.4360413.3493491.1511954.4608105.5975572.2673011.9794158-.9861242 2.0754533-1.9510913 4.0306728-3.624045 4.3119065-.7389481.1238461-1.3272168-.1259101-1.6579889-.675993-.0221891-.0665672-.0660512-.1522274-.0882403-.2177626-.777134.8983999-1.6425082 1.4629314-2.4469915 1.59813-.4339772.0732756-.8261563.0227051-1.1755054-.1511954-1.4190693-.7162429-1.5227903-3.2132888-.2791696-5.7278796.7730057-1.5031814 1.8963926-2.6936515 3.0017185-3.1591062.6723809-.2992947 1.3034797-.3121953 1.8272452-.0510865.4799035.2224068.8096436.7255314.9876723 1.3008995l3.8397434-7.86422399c.1924774-.38134262.6259386-.57072386.9530986-.43965346.327676.15429153.4613265.5980732.2683331.97941582z"/><path d="m72.3258627 8.12032726c-1.1079061.1862851-1.1213228-1.67398573-.0129006-1.86027082 1.1512522-.19350945 1.1641528 1.66676137.0129006 1.86027082m.5242816 6.64124424c-1.0077972 2.0785495-1.9954694 4.0378972-3.6679071 4.3186149-.716759.1212659-1.3065758-.1295224-1.6363159-.6790892-.4618425-.7843583-.3189036-2.0656488.4107561-3.5156796l2.1874308-4.4656821c.1713203-.3777304.6047815-.59033279.9546466-.43965344.327676.15429154.4391374.60168534.2683331 1.00263694l-2.1889789 4.4424609c-.5366662 1.0454671-.5965251 1.7771908-.4422336 2.0310752.0655352.0583108.1315864.1868011.4365573.1351986.8901435-.1496473 1.597614-1.6419922 2.4552479-3.3701606.1713204-.3772144.6058136-.5665956.9324575-.4355252.327676.1548075.4829996.593945.2900062.9758036"/><path d="m73.0832845 13.9079626c2.3443024-.6739289 3.3133977-2.0940302 3.482138-2.8211097.0634711-.2900062.0190929-.4685509-.0469583-.5041566-.1744165-.0634711-.348317-.081532-.5650476-.0448942-1.2828386.2156985-2.4660844 2.068229-2.8701321 3.3701605m-1.2823226 3.2886286c-.7704257-1.2678739-.2404678-3.3123657.4670028-4.8047106.5573072-1.1182266 1.3339251-2.0873219 2.2220044-2.72564506.9515505-.6718648 1.9299343-.83647684 2.7148086-.50260854.6331629.31219524.921621 1.1249349.6888936 2.0723572-.3803105 1.6481844-2.1079629 3.5213559-5.0823321 4.2308905.0020641.3018748.0686313.5702079.1790607.7843583.2636889.4215926.8308006.5593714 1.699787.4133362 1.4990532-.2518203 3.0961512-1.987729 3.911987-3.6152725.1924774-.4040477.6047815-.5903328.9324575-.4355253.3488331.1511954.4608105.5738201.2678171.9794159-.9871562 2.028495-2.9728211 4.2019931-5.1019411 4.5601146-1.7601619.2956824-2.5476164-.3637978-2.8995455-.9567107"/><path d="m5.52332727 63.2332629c-3.25766705.7059224-5.86462633-4.7608485-5.48689589-12.7638832.18628509-4.4739384.69250581-8.2182173 1.61412681-12.9966105 2.76537901-14.0462058 5.47347923-19.211618 7.62324019-20.5512194 2.56877342-1.6466364 4.32532322 2.1874308 4.32738732 2.5501965.0030961.5810443-.3085831 1.3752071-.9314255 2.8918052-3.84180759 9.5542064-5.21340255 18.6465704-5.63602719 28.1863281 4.63184219-9.4350046 8.02780399-23.6184731 7.81932979-23.2825407.3643138-.7332718 2.2509019-2.0150784 3.3020452-2.2421295 6.7785069-1.4711878-1.7911235 9.400947 1.2477489 26.7651948 4.793358-8.6707714 8.7172136-22.6044836 8.623297-40.1720454-.0067083-1.2343322.2502723-2.30766462 2.5099466-2.79788855 2.3123089-.50157649 3.4315675 2.23542115 3.6132084 6.70213525.5428585 13.0368605-6.4637316 40.6483366-13.272684 46.268883-1.1517683.9768357-2.3076647 1.2998674-3.4150548.8132557-3.5327084-1.5589121-4.2437912-6.6376321-4.8382522-9.5614308-1.2998674 2.8979974-3.84335563 9.2647163-7.20629182 9.9943759z"/><path d="m41.3361245 39.9380279c-1.924258-2.7153246-6.5798373 4.6452588-6.738257 9.8756902-.1589358 5.1463192 2.1286039 4.096208 2.7849879 3.4439521 2.1631777-2.1946551 5.5627516-11.1337596 3.9532691-13.3196423zm-.6569001-4.9677745c3.6544904-.2399517 5.2670691 2.3613313 5.4471619 5.9115846.3163235 6.3161484-3.7798845 15.7888229-8.5092554 18.1238369-1.085201.5149931-2.1729821.698182-3.2643754.3818586-1.208015-.3379965-4.567339-2.437703-4.3769257-8.7136014.2848459-9.3730816 5.9993089-15.4126405 10.6646927-15.7387684z"/><path d="m51.7627231 46.2618651c.2332434-.0387019 2.0909341-1.3499219 2.9413436-2.1177674 1.9717323-1.7462293 4.9404252-5.4512902 3.4506605-7.1995835-.3529612-.3978555-1.9118733-.8854993-2.5336837-.7807462-.2714293.0454103-.4639067.3689581-.8457653 1.3494059-.1150736.2683331-3.2065806 8.7812008-3.0899589 8.7616256zm9.0675947 6.3852957c.1661601 1.5960659-1.4567391 3.0760262-2.1564693 3.1518819-.1940254.0330256-.6620603-.1382947-1.0139895-.3705061-3.0471287-1.9438669-7.9834257-1.5305307-8.1382333-1.3798514-.4257208.2796857-.328192 3.1776832-1.5712967 3.3861574-.4659708.0789518-2.5723856-.8168679-2.5853785-2.7287413-.0071321-.9985087.4098163-2.6085073 1.3216328-5.7170431 3.913019-13.4801261 5.0952328-11.2230319 2.376296-10.7658336-1.0103773.1697723-1.7312645-2.8303982-1.0366946-3.6555225.7332718-.8308005 3.8753492-2.0253989 7.1015387-2.3174691 4.0420254-.346769 8.2496948.6945699 8.2837525 5.6014535.0433461 6.2784785-6.6531129 10.9010322-7.6990959 11.4934291 3.7386025.7451404 4.9920277 2.0326232 5.1179378 3.3020452z"/><path d="m70.6742208 25.3492216c1.7864793-.3008427 2.846395 1.1450599 2.8541654 2.2256167.0040982.5825924-.4154303 1.8184728-2.9320852 9.0691428-1.5253704 4.4192397-2.8551674 8.930848-3.3061734 11.2539934-.9365857 5.1117456.7456564 6.5359752-1.5878095 6.5949584-2.3334659.0179045-3.277792-1.5301711-3.4114426-4.0055439-.2703972-5.366662 3.3975099-14.8924871 5.8821712-21.2210201 1.3757232-3.5203239 1.4907968-3.747375 2.539876-3.9238556z"/><path d="m76.0650328 45.8819157c1.0784927-1.5135019 5.0694316-9.3023862 5.0647914-9.9262606-.0015522-.2915543-.8607341-.7709417-1.248785-.7059225-3.5347726.6775411-7.7460542 16.0390951-3.8547082 10.6388914zm14.7851539-34.9070403c.8163519-.0129006 2.3773281.6827014 2.3824883 1.3478578 0 0-10.8752309 32.4182508-11.3396536 38.2828771-.0696634 1.2193676-.1857691 1.2802585-1.2750983 1.3385694-2.2158122.122298-2.9635327-1.167249-3.2483786-2.9929461-1.5057615 1.6693415-2.8608436 2.5625811-3.9868106 2.7932443-2.4464755.4943522-3.7865929-2.068745-3.3479715-6.0978697.6594802-5.8971359 3.9950671-12.9104343 8.0319322-14.0467218 1.4360981-.4081759 2.9155423-.1155896 4.4414288 1.2100791 2.6755906-6.902353 7.0581926-21.8696638 8.458685-21.8552255z"/><path d="m107.584419 20.310442c1.318961-.512929 3.19368.7121148 2.263287 6.6546609-.484032 3.1622024-4.108077 19.0501021-8.796682 21.5445679-.658964.3607016-1.2807742.4649387-1.9825684.2079582-3.4305355-1.2131753-2.9619847-6.5375232-2.600767-10.5939973l-.9195569 2.027979c-2.9129622 6.3171805-5.1922455 8.5319606-6.8244332 8.6810919-1.9825688.2089902-3.0125551-2.5739337-3.0280359-4.8191593-.0500544-7.2764713 4.7907779-15.9167971 5.0616912-16.1701655.6181982-.5619514 2.9542442-.16358 2.9609525.7513327.0010321.1661601-5.6447996 16.2682103-3.3278464 13.7138856 1.1197746-1.186858 4.9832553-10.5372345 7.6144677-18.1398337 3.3015294-.6383232 3.5332244-.8437012 3.1606544 7.1701701.001548.2497562-.779714 10.9552148-.546987 10.9154809.816352-.1367467 5.816636-13.7582637 5.772258-20.2034184-.043862-.7415282.494868-1.4980211 1.193566-1.740553"/><path d="m118.420432 12.8693587c1.475832-.2476921 1.99031.9974767 1.924258 2.6740426-.13107 3.5182598-2.893869 8.9783223-5.2423 6.8755197-2.152341-1.9278702.170805-9.0624345 3.278824-9.584652zm-4.433172 11.3602947c2.365975-.8973678 3.267471.0753397 3.358808 1.9753444.141907 3.7226058-2.840719 11.0517116-4.558051 15.8352652-1.831889 5.0539507-2.101254 5.4745112-2.923798 4.6550632-.9789-.9185248-1.37882-2.5161388-1.39172-4.3867301-.08566-6.8130807 4.817095-17.7951289 5.553463-18.043853z"/><path d="m122.598998 38.0599026c1.079009-1.5135019 5.069948-9.3018701 5.065307-9.9257446-.001552-.2915542-.860734-.7709416-1.248785-.7064385-3.534772.6775411-7.746054 16.0390951-3.855224 10.6388914zm10.656952-22.5224356c.816868-.0123846 2.377328.6827013 2.382489 1.3478578 0 0-6.746514 20.0336461-7.211452 25.8987885-.069148 1.2188515-.18577 1.2797425-1.274067 1.3380533-2.216844.122814-2.964048-1.167249-3.24941-2.9924301-1.50473 1.6688255-2.860328 2.5625811-3.986295 2.7927283-2.446991.4948682-3.786593-2.068745-3.347971-6.0978697.65948-5.8971359 3.995067-12.9104343 8.031932-14.0467218 1.436098-.4076599 2.916058-.1150736 4.441429 1.2100791 2.67559-6.902353 2.929475-9.4850591 4.330483-9.470159z"/><path d="m145.780346 21.4669577c-1.985149-.1243621-7.966397 6.7093596-7.343038 6.7294845.038702-.0067083.349349-.0588268.65948-.1522274 3.299465-.9298774 7.850807-6.5235905 6.760962-6.5901577zm-.084628 10.2554847c1.19305-1.699787 2.327274-.8493775 2.379392 1.0563036.054183 2.1141552-1.246201 5.4549023-5.390399 7.9421437-2.168338 1.3215406-3.799493 1.636832-6.01995 1.1780856-3.467173-.7492686-5.082848-3.766984-5.030213-7.4803013.073791-6.1319273 4.529669-14.2082377 12.364995-17.3983054 4.032737-1.6357999 5.988989.0335416 6.125735 2.8835488.138295 3.1823274-2.007854 7.7888843-6.029754 11.0883493-5.840373 4.7278229-8.120173 1.2394926-7.481849 3.5466412.558855 2.0708091 5.422908 2.4191261 9.043341-2.8097572z"/><path d="m2.90959331 14.5234111c17.63567699 9.5180847 68.14267499-8.21976528 102.40468369-12.12349587 36.030427-4.10498042 44.765702 3.83509924 37.723506 12.41969437-.662576-3.7520192-.165644-10.31534363-29.081116-6.76921849-28.9154717 3.54664119-67.4403647 17.69243979-95.404802 17.11087939-19.89999556-.4143682-20.80716785-8.1139801-15.64227169-10.6378594" transform="matrix(.9998477 -.01745241 .01745241 .9998477 5.097932 51.341796)"/></g></svg>