<svg xmlns="http://www.w3.org/2000/svg" viewBox="0 0 24 24" height="24" width="24"><title>slack-2</title><g data-name="Layer 2"><path d="M23 8.7C21.18 2.64 18.77 0 14.36 0A20.14 20.14 0 0 0 8.7 1C2.64 2.82 0 5.23 0 9.64a20.15 20.15 0 0 0 1 5.66C2.82 21.36 5.23 24 9.64 24a20.16 20.16 0 0 0 5.66-1c6.06-1.82 8.7-4.22 8.7-8.64a20.19 20.19 0 0 0-1-5.66m-4.16 5.35l-1.55.52.54 1.61a1.24 1.24 0 0 1-.83 1.58 1.27 1.27 0 0 1-1.55-.76l-.54-1.61-3.2 1.07.54 1.54a1.24 1.24 0 0 1-.79 1.57 1.27 1.27 0 0 1-1.57-.79l-.54-1.61-1.55.52a1.27 1.27 0 0 1-1.57-.79A1.25 1.25 0 0 1 7 15.38l1.55-.52-1-3.09-1.55.52a1.27 1.27 0 0 1-1.6-.79 1.25 1.25 0 0 1 .79-1.57l1.55-.52L6.2 7.8A1.24 1.24 0 1 1 8.56 7l.54 1.62 3.2-1.07-.54-1.61a1.24 1.24 0 1 1 2.36-.79l.54 1.61 1.55-.52A1.24 1.24 0 0 1 17 8.6l-1.56.52 1 3.09 1.56-.52a1.24 1.24 0 1 1 .79 2.36m-5.71-4.11L9.88 11l1 3.09L14.12 13z" data-name="Layer 1"/></g></svg>
