<svg width="24" height="24" xmlns="http://www.w3.org/2000/svg" fill-rule="evenodd" clip-rule="evenodd"><path d="M22.994 8.7C21.177 2.645 18.771 0 14.358 0c-1.6 0-3.464.347-5.658 1.006C2.644 2.823 0 5.229 0 9.642c0 1.6.347 3.463 1.006 5.658C2.822 21.356 5.228 24 9.641 24c1.6 0 3.463-.347 5.659-1.006 6.055-1.817 8.7-4.222 8.7-8.635 0-1.6-.348-3.464-1.006-5.659m-4.164 5.353l-1.554.519.537 1.611c.211.652-.133 1.362-.786 1.573-.735.208-1.373-.206-1.574-.786l-.537-1.612-3.204 1.074.537 1.612c.212.653-.134 1.363-.786 1.573-.73.208-1.371-.201-1.573-.787l-.538-1.611-1.554.518a1.27 1.27 0 0 1-1.574-.787c-.21-.652.135-1.362.787-1.573l1.554-.518-1.036-3.089-1.554.518c-.729.207-1.37-.2-1.573-.787-.211-.652.134-1.362.786-1.573l1.555-.518-.538-1.611c-.211-.653.135-1.363.787-1.574a1.245 1.245 0 0 1 1.573.787l.538 1.611 3.203-1.074-.536-1.612a1.244 1.244 0 0 1 .786-1.573c.653-.211 1.363.134 1.574.787l.537 1.612 1.554-.519a1.246 1.246 0 0 1 1.573.787 1.244 1.244 0 0 1-.786 1.573l-1.555.518 1.036 3.089 1.555-.518a1.245 1.245 0 0 1 1.573.787 1.246 1.246 0 0 1-.787 1.573m-5.747-4.117l-3.202 1.073 1.035 3.092 3.202-1.072-1.035-3.093z"/></svg>