<svg height="24" viewBox="0 0 24 24" width="24" xmlns="http://www.w3.org/2000/svg"><path d="m23 8.7c-1.82-6.06-4.23-8.7-8.64-8.7a20.14 20.14 0 0 0 -5.66 1c-6.06 1.82-8.7 4.23-8.7 8.64a20.15 20.15 0 0 0 1 5.66c1.82 6.06 4.23 8.7 8.64 8.7a20.16 20.16 0 0 0 5.66-1c6.06-1.82 8.7-4.22 8.7-8.64a20.19 20.19 0 0 0 -1-5.66m-4.16 5.35-1.55.52.54 1.61a1.24 1.24 0 0 1 -.83 1.58 1.27 1.27 0 0 1 -1.55-.76l-.54-1.61-3.2 1.07.54 1.54a1.24 1.24 0 0 1 -.79 1.57 1.27 1.27 0 0 1 -1.57-.79l-.54-1.61-1.55.52a1.27 1.27 0 0 1 -1.57-.79 1.25 1.25 0 0 1 .77-1.52l1.55-.52-1-3.09-1.55.52a1.27 1.27 0 0 1 -1.6-.79 1.25 1.25 0 0 1 .79-1.57l1.55-.52-.54-1.61a1.24 1.24 0 1 1 2.36-.8l.54 1.62 3.2-1.07-.54-1.61a1.24 1.24 0 1 1 2.36-.79l.54 1.61 1.55-.52a1.24 1.24 0 0 1 .79 2.36l-1.56.52 1 3.09 1.56-.52a1.24 1.24 0 1 1 .79 2.36m-5.71-4.11-3.2 1.06 1 3.09 3.24-1.09z"/></svg>